<?xml version="1.0" encoding="UTF-8"?>
<svg version="1.1" xmlns="http://www.w3.org/2000/svg" width="366" height="189">
<path d="M0 0 C120.78 0 241.56 0 366 0 C366 62.37 366 124.74 366 189 C245.22 189 124.44 189 0 189 C0 126.63 0 64.26 0 0 Z " fill="#E5E5E5" transform="translate(0,0)"/>
<path d="M0 0 C3.11786182 1.22677922 4.4083711 2.70976227 6.51171875 5.30078125 C9.31561263 8.6359946 12.07867409 11.29751652 15.51171875 13.98828125 C17.19904152 15.97088551 18.86537932 17.97151545 20.51171875 19.98828125 C22.15540015 21.67762047 23.82600635 23.34088049 25.51171875 24.98828125 C26.18332031 25.67019531 26.85492188 26.35210937 27.546875 27.0546875 C31.80581292 31.37206711 36.14917386 35.49087551 40.74609375 39.4453125 C43.11824086 41.51831716 45.3121228 43.7336954 47.51171875 45.98828125 C48.15238281 46.61863281 48.79304687 47.24898437 49.453125 47.8984375 C56.77772729 55.11512668 56.77772729 55.11512668 59.51171875 58.98828125 C59.51171875 59.64828125 59.51171875 60.30828125 59.51171875 60.98828125 C60.06859375 61.05015625 60.62546875 61.11203125 61.19921875 61.17578125 C64.47688208 62.32739269 66.10220385 64.50171791 68.51171875 66.98828125 C69.39472656 67.84808594 70.27773438 68.70789063 71.1875 69.59375 C72.05761719 70.44582031 72.92773438 71.29789062 73.82421875 72.17578125 C74.70722656 73.03558594 75.59023438 73.89539063 76.5 74.78125 C78.51171875 76.98828125 78.51171875 76.98828125 78.51171875 78.98828125 C26.37171875 78.98828125 -25.76828125 78.98828125 -79.48828125 78.98828125 C-78.47207388 74.92345178 -77.90668717 74.01700052 -75.05078125 71.23828125 C-74.43332031 70.6246875 -73.81585938 70.01109375 -73.1796875 69.37890625 C-71.48828125 67.98828125 -71.48828125 67.98828125 -69.48828125 67.98828125 C-69.28203125 67.43140625 -69.07578125 66.87453125 -68.86328125 66.30078125 C-67.51981372 64.04131314 -66.43670423 62.98841565 -64.42578125 61.36328125 C-61.48003412 59.31708728 -61.48003412 59.31708728 -60.48828125 56.98828125 C-59.82828125 56.98828125 -59.16828125 56.98828125 -58.48828125 56.98828125 C-58.15828125 55.99828125 -57.82828125 55.00828125 -57.48828125 53.98828125 C-55.83825297 52.63441189 -54.17084255 51.30149983 -52.48828125 49.98828125 C-51.82828125 48.99828125 -51.16828125 48.00828125 -50.48828125 46.98828125 C-49.82828125 46.98828125 -49.16828125 46.98828125 -48.48828125 46.98828125 C-48.15828125 45.99828125 -47.82828125 45.00828125 -47.48828125 43.98828125 C-45.89453125 42.453125 -45.89453125 42.453125 -43.98828125 40.92578125 C-41.30721724 38.81106358 -41.30721724 38.81106358 -39.48828125 35.98828125 C-38.82828125 35.98828125 -38.16828125 35.98828125 -37.48828125 35.98828125 C-37.15828125 34.99828125 -36.82828125 34.00828125 -36.48828125 32.98828125 C-35.82828125 32.98828125 -35.16828125 32.98828125 -34.48828125 32.98828125 C-34.15828125 31.99828125 -33.82828125 31.00828125 -33.48828125 29.98828125 C-31.88671875 28.4453125 -31.88671875 28.4453125 -29.86328125 26.80078125 C-26.97213492 24.35719672 -24.42738807 21.88261308 -21.98828125 18.98828125 C-19.08537846 15.56535733 -15.97258794 12.67863104 -12.53515625 9.80078125 C-9.61071679 7.21120127 -7.03437301 4.31608164 -4.4453125 1.39453125 C-2.48828125 -0.01171875 -2.48828125 -0.01171875 0 0 Z " fill="#359248" transform="translate(280.48828125,18.01171875)"/>
<path d="M0 0 C0.99 0 1.98 0 3 0 C3 52.14 3 104.28 3 158 C0 158 0 158 -1.54296875 156.53125 C-2.08566406 155.8609375 -2.62835938 155.190625 -3.1875 154.5 C-6.4091006 150.63132578 -9.85251563 147.13479536 -13.49609375 143.6640625 C-15 142 -15 142 -15 140 C-15.57878906 139.74863281 -16.15757813 139.49726563 -16.75390625 139.23828125 C-19.28283677 137.84407086 -20.9343046 136.26209642 -22.9375 134.1875 C-23.98164062 133.11435547 -23.98164062 133.11435547 -25.046875 132.01953125 C-26.01367188 131.01986328 -26.01367188 131.01986328 -27 130 C-27.886875 129.13375 -28.77375 128.2675 -29.6875 127.375 C-32 125 -32 125 -34.3125 122.125 C-36.93249579 118.90614803 -39.97124474 116.28892711 -43.1328125 113.61328125 C-44.84770702 112.13158368 -46.49565446 110.69589264 -48 109 C-48 108.34 -48 107.68 -48 107 C-49.485 106.505 -49.485 106.505 -51 106 C-52.72742143 104.37128837 -54.36161196 102.71478955 -56 101 C-57.26810916 99.72644832 -58.5391724 98.45583416 -59.8125 97.1875 C-68.1875 88.8125 -68.1875 88.8125 -70.16796875 86.8203125 C-71.30066081 85.6948658 -72.44671795 84.58248638 -73.61328125 83.4921875 C-74.79429969 82.38103212 -75.90581835 81.19676118 -77 80 C-77 77 -77 77 -75.53125 75.421875 C-74.8609375 74.87015625 -74.190625 74.3184375 -73.5 73.75 C-72.77554688 73.14027344 -72.05109375 72.53054687 -71.3046875 71.90234375 C-70.16386719 70.96068359 -70.16386719 70.96068359 -69 70 C-67.53564992 68.77800751 -66.07702386 67.54911373 -64.625 66.3125 C-63.97789063 65.77238281 -63.33078125 65.23226562 -62.6640625 64.67578125 C-60.89453502 62.89379231 -60.0811725 61.24480731 -59 59 C-57.34614767 57.65080468 -55.678298 56.31866272 -54 55 C-53.38125 54.195625 -52.7625 53.39125 -52.125 52.5625 C-50 50 -50 50 -46.75 47.8125 C-43.54136147 45.64837572 -41.46254907 43.20292816 -39.125 40.125 C-35.87832107 35.8817536 -32.5324656 32.91629394 -28.234375 29.7890625 C-25.00597132 27.20408193 -22.45829037 24.14470598 -19.78515625 21.00390625 C-17.7322198 18.69940647 -15.40475941 16.92380752 -13 15 C-12.566875 14.236875 -12.13375 13.47375 -11.6875 12.6875 C-9.56550901 9.30803286 -6.90268361 7.16943418 -3.83984375 4.6484375 C-1.7808183 2.94156938 -1.7808183 2.94156938 0 0 Z " fill="#39418F" transform="translate(84,22)"/>
<path d="M0 0 C2.80848433 1.4920073 4.222994 3.4604555 6 6.0625 C6 6.7225 6 7.3825 6 8.0625 C6.66 8.0625 7.32 8.0625 8 8.0625 C8.598125 8.825625 9.19625 9.58875 9.8125 10.375 C12.06054564 13.13688465 13.95125954 14.30947424 17 16.0625 C19.68020392 18.44490349 20.85537608 19.62862823 22 23.0625 C23.43893293 24.52846338 23.43893293 24.52846338 25.28125 25.98046875 C30.74972941 30.62257303 35.78896137 35.66539623 40.85742188 40.73461914 C42.51936188 42.39433598 44.1891961 44.04584457 45.859375 45.69726562 C46.91715357 46.75211614 47.97446325 47.8074371 49.03125 48.86328125 C49.7810614 49.60231438 49.7810614 49.60231438 50.54602051 50.35627747 C54 53.83362877 54 53.83362877 54 56.0625 C54.66 56.0625 55.32 56.0625 56 56.0625 C56 56.7225 56 57.3825 56 58.0625 C56.56203125 58.13210937 57.1240625 58.20171875 57.703125 58.2734375 C60.89029785 59.36835062 62.43956026 61.25197276 64.75 63.6875 C68.52119877 67.59858003 72.36964949 71.18591372 76.6015625 74.58984375 C78 76.0625 78 76.0625 78 79.0625 C25.86 79.0625 -26.28 79.0625 -80 79.0625 C-78.92122472 74.74739889 -78.40481575 74.20557496 -75.125 71.5625 C-72.90899707 69.76353083 -71.11411655 68.21919735 -69.4296875 65.90625 C-68 64.0625 -68 64.0625 -65 63.0625 C-63.24986662 61.37347201 -63.24986662 61.37347201 -61.5625 59.3125 C-60.94761719 58.59191406 -60.33273438 57.87132812 -59.69921875 57.12890625 C-58.38678607 55.53286743 -57.12066666 53.89867646 -55.875 52.25 C-54 50.0625 -54 50.0625 -51.75 48.75 C-47.54691947 46.17083695 -44.41492026 42.58847457 -41 39.0625 C-40.0925 38.19625 -39.185 37.33 -38.25 36.4375 C-35.84545896 34.03720896 -35.84545896 34.03720896 -33.8125 30.75 C-33.214375 29.863125 -32.61625 28.97625 -32 28.0625 C-31.34 28.0625 -30.68 28.0625 -30 28.0625 C-30 27.4025 -30 26.7425 -30 26.0625 C-28.33333333 25.0625 -26.66666667 24.0625 -25 23.0625 C-23.7315625 21.7940625 -23.7315625 21.7940625 -22.4375 20.5 C-20 18.0625 -20 18.0625 -17.8125 17 C-15.42598502 15.7655957 -15.06950369 14.48670837 -14 12.0625 C-12.5625 9.8125 -12.5625 9.8125 -11 8.0625 C-10.01 8.0625 -9.02 8.0625 -8 8.0625 C-7.7525 7.485 -7.505 6.9075 -7.25 6.3125 C-3.80918728 0.1190371 -3.80918728 0.1190371 0 0 Z " fill="#F48025" transform="translate(186,105.9375)"/>
<path d="M0 0 C0.99 0 1.98 0 3 0 C5.04296875 2.1171875 5.04296875 2.1171875 7.1875 4.875 C7.90292969 5.77992187 8.61835937 6.68484375 9.35546875 7.6171875 C11 10 11 10 11 12 C11.556875 12.061875 12.11375 12.12375 12.6875 12.1875 C17.16880712 13.76201331 19.8547 17.81602113 22.8125 21.375 C25.63663489 24.73047985 28.79155941 27.48376215 32.12890625 30.31640625 C34.70954594 32.63844322 36.7795944 35.33551328 39 38 C40.27453636 39.14437094 41.56777536 40.2681163 42.875 41.375 C46.38401081 44.35733002 49.3086133 47.58011458 52.27734375 51.08984375 C54.4579097 53.50775021 56.87275329 55.50648604 59.3828125 57.5703125 C61.88531695 59.7826715 63.86451523 62.43741828 66 65 C67.12783056 65.99984979 68.27484229 66.978371 69.4375 67.9375 C73.0728581 70.94304826 76.04227629 74.33805636 79 78 C77.73882275 81.88862987 76.54735833 83.89375599 73 86 C72.34 86 71.68 86 71 86 C70.76966064 86.55631104 70.53932129 87.11262207 70.30200195 87.68579102 C68.64493159 90.63110696 66.57222713 92.65172061 64.16796875 95.02734375 C63.69434402 95.49813858 63.2207193 95.96893341 62.73274231 96.45399475 C61.22231245 97.9532789 59.70508851 99.4454658 58.1875 100.9375 C57.17857482 101.9363829 56.17010655 102.93572751 55.16210938 103.93554688 C53.29601596 105.78537161 51.42685112 107.63187321 49.55541992 109.47631836 C46.06715189 112.92126215 42.59062669 116.37666011 39.17578125 119.89453125 C38.2213791 120.86721196 37.26695188 121.83986808 36.3125 122.8125 C35.82716797 123.31458984 35.34183594 123.81667969 34.84179688 124.33398438 C33.59875394 125.59417273 32.30300108 126.80191044 31 128 C30.34 128 29.68 128 29 128 C28.7525 128.61875 28.505 129.2375 28.25 129.875 C26.76259631 132.40358627 25.56321991 132.71839004 23 134 C22.71705078 134.5868457 22.43410156 135.17369141 22.14257812 135.77832031 C20.72061018 138.54325799 18.91322756 140.34599154 16.71875 142.546875 C15.87699219 143.39121094 15.03523438 144.23554688 14.16796875 145.10546875 C13.28753906 145.97816406 12.40710938 146.85085937 11.5 147.75 C10.61957031 148.63816406 9.73914063 149.52632812 8.83203125 150.44140625 C7.99027344 151.28058594 7.14851563 152.11976563 6.28125 152.984375 C5.12206055 154.14018066 5.12206055 154.14018066 3.93945312 155.31933594 C2 157 2 157 0 157 C0 105.19 0 53.38 0 0 Z " fill="#0293D7" transform="translate(95,22)"/>
<path d="M0 0 C51.15 0 102.3 0 155 0 C153.61380704 5.54477185 150.49735358 7.79560691 146.125 11.3125 C142.81902154 13.98468985 140.20544849 17.14831614 137.515625 20.42578125 C136.76539063 21.20501953 136.76539063 21.20501953 136 22 C135.34 22 134.68 22 134 22 C134 22.66 134 23.32 134 24 C132.33410737 25.1559255 130.66677512 26.30983224 128.9921875 27.453125 C126.18688013 29.63136366 124.08815814 32.24703256 121.81640625 34.9609375 C119.9952344 37.00534977 118.09080505 38.73550557 116 40.5 C113.281558 42.80182254 110.91885943 45.15036885 108.625 47.875 C105.96099406 51.03166458 103.11841263 53.72890897 100 56.4375 C96.6201458 59.38719094 93.88060493 62.30586841 91.25 65.9375 C88.50609511 69.68685467 86.56811668 70.83141201 82 72 C81.31731862 73.32520503 80.6492959 74.65812182 80 76 C77.89575195 77.03442383 77.89575195 77.03442383 75 77 C72.24061091 75.14354795 70.03105705 72.77440117 67.73046875 70.38671875 C67.04946609 69.70196976 66.36846344 69.01722076 65.66682434 68.3117218 C64.23021488 66.86166575 62.80082064 65.4044311 61.37817383 63.94067383 C59.19262701 61.69277328 56.9864086 59.46696513 54.77539062 57.24414062 C53.38416024 55.83457231 51.9941436 54.42380479 50.60546875 53.01171875 C49.94306686 52.34081711 49.28066498 51.66991547 48.59819031 50.97868347 C47.99368546 50.35496353 47.3891806 49.73124359 46.76635742 49.08862305 C46.23072678 48.5393364 45.69509613 47.99004974 45.14323425 47.42411804 C44 46 44 46 44 44 C43.17822266 43.66935547 43.17822266 43.66935547 42.33984375 43.33203125 C39.26451006 41.58129871 36.99841279 39.21052934 34.5625 36.6875 C34.09779297 36.21376953 33.63308594 35.74003906 33.15429688 35.25195312 C31.76677242 33.83733614 30.38336493 32.41868488 29 31 C26.48190417 28.43779155 24.09301589 26.07187592 21.25 23.875 C17.32212487 20.68804188 14.36226026 16.67367078 11.24609375 12.71875 C8.34852977 9.21143778 5.36894101 5.99895695 1.6875 3.3125 C1.130625 2.879375 0.57375 2.44625 0 2 C0 1.34 0 0.68 0 0 Z " fill="#FDC303" transform="translate(108,18)"/>
<path d="M0 0 C51.48 0 102.96 0 156 0 C154.87563746 3.37308761 153.92657267 4.15123097 151.25 6.375 C147.98853861 9.10118337 144.98423237 11.97162219 142 15 C140.94875345 16.05291945 139.89662539 17.10495932 138.84375 18.15625 C138.29589844 18.70410156 137.74804688 19.25195312 137.18359375 19.81640625 C134.66992188 22.33007812 134.66992188 22.33007812 132.15625 24.84375 C131.62217529 25.3785498 131.08810059 25.91334961 130.5378418 26.46435547 C129.13069518 27.86949156 127.7161098 29.26716804 126.30078125 30.6640625 C124.32342629 32.67163171 122.49338998 34.71510181 120.6875 36.875 C117.65508523 40.38308768 114.39746585 43.40107537 110.859375 46.390625 C109.18608645 47.83893358 107.65219104 49.33844114 106.125 50.9375 C104 53 104 53 102 53 C101.7421875 53.57234375 101.484375 54.1446875 101.21875 54.734375 C99.88634058 57.21128995 98.34943882 59.1341166 96.5 61.25 C95.8915625 61.95640625 95.283125 62.6628125 94.65625 63.390625 C93 65 93 65 91 65 C90.773125 65.556875 90.54625 66.11375 90.3125 66.6875 C87.6177736 71.43535128 83.26988389 74.70608957 79 78 C77.66666667 77.33333333 76.33333333 76.66666667 75 76 C73.9171875 75.5359375 73.9171875 75.5359375 72.8125 75.0625 C71 74 71 74 70 71 C68.989375 70.175 67.97875 69.35 66.9375 68.5 C65.4834375 67.2625 65.4834375 67.2625 64 66 C64 65.01 64 64.02 64 63 C63.44828125 62.7628125 62.8965625 62.525625 62.328125 62.28125 C59.43225289 60.68754857 57.20487963 58.71082727 54.75 56.5 C53.85796875 55.7059375 52.9659375 54.911875 52.046875 54.09375 C50 52 50 52 50 50 C49.443125 49.79375 48.88625 49.5875 48.3125 49.375 C45.7056373 47.82497353 44.1434515 45.91543922 42.265625 43.5625 C38.12660238 38.45259553 32.95788683 34.28458783 28.01171875 29.98828125 C27.34785156 29.33214844 26.68398437 28.67601562 26 28 C26 27.34 26 26.68 26 26 C24.68 25.34 23.36 24.68 22 24 C22 23.01 22 22.02 22 21 C21.236875 20.731875 20.47375 20.46375 19.6875 20.1875 C17.09516021 19.04204753 15.69924463 18.23584819 14 16 C14 15.01 14 14.02 14 13 C13.319375 12.814375 12.63875 12.62875 11.9375 12.4375 C6.38610965 9.72086217 2.73472516 5.46945033 0 0 Z " fill="#EB2F3F" transform="translate(202,106)"/>
<path d="M0 0 C51.81 0 103.62 0 157 0 C157.33 1.65 157.66 3.3 158 5 C156.625 6.5625 156.625 6.5625 155 8 C154.28552357 10.10332891 154.28552357 10.10332891 154 12 C156.31 12.33 158.62 12.66 161 13 C159.625 15 159.625 15 158 17 C157.34 17 156.68 17 156 17 C155.66935547 17.81984375 155.66935547 17.81984375 155.33203125 18.65625 C153.57684729 21.74455023 151.20902112 24.04210292 148.6875 26.5 C148.21376953 26.97308594 147.74003906 27.44617188 147.25195312 27.93359375 C144.99054917 30.16715552 142.69676533 32.24089132 140.20703125 34.21875 C137.92138695 35.81126918 137.92138695 35.81126918 137 38 C136.34 38 135.68 38 135 38 C134.67 38.99 134.34 39.98 134 41 C133.34 41 132.68 41 132 41 C131.79375 41.556875 131.5875 42.11375 131.375 42.6875 C129.83127065 45.28377209 127.93606643 46.78344994 125.5859375 48.640625 C123.04056047 50.82237674 121.09914974 53.39024626 119 56 C117.3125 57.875 117.3125 57.875 116 59 C115.34 59 114.68 59 114 59 C113.690625 59.8353125 113.690625 59.8353125 113.375 60.6875 C111.82878474 63.28795294 109.93082704 64.84752926 107.578125 66.71484375 C105.21236764 68.64141348 103.12817818 70.81725315 101 73 C100.0925 73.86625 99.185 74.7325 98.25 75.625 C95.80995326 77.86533112 95.80995326 77.86533112 95 81 C147.14 81 199.28 81 253 81 C252.01 81.495 252.01 81.495 251 82 C250.34786708 84.02463255 250.34786708 84.02463255 250 86 C251.32 86.66 252.64 87.32 254 88 C253.67 89.32 253.34 90.64 253 92 C252.34 91.67 251.68 91.34 251 91 C248.9728048 90.90591252 246.9424322 90.87809558 244.91305542 90.87974548 C243.61452637 90.87837082 242.31599731 90.87699615 240.9781189 90.87557983 C239.53082253 90.87911923 238.08352639 90.88275404 236.63623047 90.88647461 C235.1187134 90.88675655 233.60119619 90.88659861 232.0836792 90.8860321 C227.95581823 90.8857444 223.82798613 90.89163674 219.70013189 90.89860606 C215.38929229 90.90484413 211.07845207 90.90544376 206.76760864 90.90663147 C198.60074678 90.90974344 190.43389826 90.91795504 182.26704228 90.92798096 C172.97092308 90.93914624 163.67480326 90.94465359 154.37867904 90.94967639 C135.25244512 90.96013776 116.12622363 90.97773462 97 91 C98.22062521 92.44475986 99.45192126 93.88050764 100.6875 95.3125 C101.71423828 96.51326172 101.71423828 96.51326172 102.76171875 97.73828125 C105.0207731 100.02099062 107.24651252 101.38492919 110 103 C111 104.66666667 112 106.33333333 113 108 C114.65948148 109.01187895 116.32580562 110.0126546 118 111 C118.30421875 111.62261719 118.6084375 112.24523437 118.921875 112.88671875 C120.17837619 115.34964318 121.54649895 116.51700897 123.6875 118.25 C127.31877455 121.30895411 130.34491304 124.60080631 133.40625 128.21875 C135.39284391 130.43906085 137.65934464 132.16543228 140 134 C141.35386936 135.65002828 142.68678142 137.3174387 144 139 C148.17288074 143.36646799 152.71858714 147.01665411 157.4765625 150.71875 C159.99277338 152.99346695 161.35548508 155.06654096 163 158 C163.721875 158.53625 164.44375 159.0725 165.1875 159.625 C165.785625 160.07875 166.38375 160.5325 167 161 C167 161.99 167 162.98 167 164 C167.5775 164.12375 168.155 164.2475 168.75 164.375 C171 165 171 165 173.0625 166.0625 C175.09134681 167.21778046 175.09134681 167.21778046 178 167 C176.75 168.5 176.75 168.5 175 170 C173.68 170 172.36 170 171 170 C171.33 170.99 171.66 171.98 172 173 C167.71 173 163.42 173 159 173 C159 172.67 159 172.34 159 172 C158.28991602 171.99576806 157.57983204 171.99153612 156.84823036 171.98717594 C139.49220858 171.8834308 122.1362247 171.77473186 104.78026772 171.66066074 C96.38672793 171.60561151 87.99318391 171.55217932 79.59960938 171.50268555 C72.27546244 171.45949354 64.95134323 171.41313344 57.62723958 171.36312145 C53.75675783 171.33679881 49.88628056 171.3119589 46.01576614 171.29092598 C15.06879135 171.1208471 15.06879135 171.1208471 0 170 C0 169.67 0 169.34 0 169 C52.14 169 104.28 169 158 169 C155.34088531 164.49058053 155.34088531 164.49058053 151.96875 160.9921875 C151.40542969 160.48042969 150.84210938 159.96867188 150.26171875 159.44140625 C149.38966797 158.66603516 149.38966797 158.66603516 148.5 157.875 C147.34333922 156.83118417 146.18707618 155.78692741 145.03125 154.7421875 C144.26651367 154.05938721 144.26651367 154.05938721 143.48632812 153.36279297 C142 152 142 152 140.49804688 150.39111328 C138.93703198 148.74910749 138.93703198 148.74910749 136 148 C136 147.34 136 146.68 136 146 C135.34 146 134.68 146 134 146 C132.68652344 144.66748047 132.68652344 144.66748047 131.109375 142.7421875 C126.61034567 137.45291416 121.72600028 132.57543732 116.81005859 127.6796875 C115.23546546 126.1105155 113.66636722 124.53598769 112.09765625 122.9609375 C111.0914668 121.95540789 110.08496771 120.950188 109.078125 119.9453125 C107.72315918 118.59203857 107.72315918 118.59203857 106.34082031 117.21142578 C104.00974486 114.88503623 104.00974486 114.88503623 101 113 C99.98133771 111.34467377 98.98189187 109.67739862 98 108 C96.25505872 105.93779667 94.82003944 104.89904652 92.4375 103.5625 C89.84222021 101.89885911 89.07434297 100.83235875 88 98 C87.34 98 86.68 98 86 98 C84.88671875 96.46875 84.88671875 96.46875 83.6875 94.5 C82.43937588 92.56450631 82.43937588 92.56450631 81 91 C78.28528995 90.41231617 78.28528995 90.41231617 76 91 C75.71125 91.598125 75.4225 92.19625 75.125 92.8125 C72.55172414 97.81609195 72.55172414 97.81609195 69 99 C67.81133558 100.71695971 66.62448367 102.43525001 65.453125 104.1640625 C63.51837471 106.60850507 61.29489552 108.10372864 58.70703125 109.80078125 C56.70341988 111.13521444 56.70341988 111.13521444 54.1875 113.8125 C53.465625 114.534375 52.74375 115.25625 52 116 C51.34 116 50.68 116 50 116 C50 116.66 50 117.32 50 118 C49.0246803 119.02408568 48.01801357 120.01834406 47 121 C46.071875 122.175625 46.071875 122.175625 45.125 123.375 C42.8974342 126.12669893 40.53233473 128.52393938 38 131 C37.26910156 131.76441406 36.53820312 132.52882812 35.78515625 133.31640625 C34.98980469 134.14011719 34.19445312 134.96382812 33.375 135.8125 C32.61960938 136.60269531 31.86421875 137.39289063 31.0859375 138.20703125 C29 140 29 140 26 140 C25.74089844 140.58652344 25.48179687 141.17304688 25.21484375 141.77734375 C23.91475016 144.15597158 22.51125162 145.68918393 20.5625 147.5625 C19.66724609 148.43068359 19.66724609 148.43068359 18.75390625 149.31640625 C18.17511719 149.87199219 17.59632812 150.42757812 17 151 C15.99772986 151.9977247 14.99694659 152.99695588 14 154 C14.33 152.02 14.66 150.04 15 148 C15.99 148 16.98 148 18 148 C18 146.68 18 145.36 18 144 C19.98 143.01 19.98 143.01 22 142 C21.938125 140.80375 21.87625 139.6075 21.8125 138.375 C21.85518162 132.30354 24.18146303 128.6767182 28.375 124.4375 C29.58105536 123.28926921 30.7896272 122.14367879 32 121 C33.669062 119.33573211 35.33536278 117.66869365 37 116 C47 106 57 96 67 86 C65.26291478 80.47291068 61.82006968 77.61351572 57.625 73.89453125 C49.77324452 66.91908776 49.77324452 66.91908776 47.3125 63.8125 C45.45785314 61.55684841 43.84501862 59.95296235 41.625 58.125 C38.99222157 55.94712929 36.76908704 53.67119857 34.5625 51.0625 C31.60476307 47.5742273 28.40026979 44.6743594 24.9140625 41.7265625 C22.47818458 39.5293012 20.45661513 37.0970217 18.37890625 34.56640625 C16.48339794 32.41315177 14.25871145 30.75677557 12 29 C9.70643739 25.55965608 9.87392501 24.6094509 10.125 20.625 C10.19658569 16.7644861 10.15159976 15.27612813 8.25 11.8125 C5.96236924 9.58178031 5.96236924 9.58178031 2 10 C0.26265853 6.19956554 0 4.40285423 0 0 Z M2 2 C4.18111023 6.36222046 5.0381463 6.65703154 9 9 C11.09765625 11.3046875 11.09765625 11.3046875 13.0625 13.875 C13.71347656 14.71804687 14.36445312 15.56109375 15.03515625 16.4296875 C15.68355469 17.27789062 16.33195312 18.12609375 17 19 C20.03225929 22.91666825 23.15672136 25.86262968 27 29 C29.71869737 31.66800979 32.38066684 34.38931897 35.04296875 37.11328125 C36.09110033 38.17973223 37.13927786 39.24613804 38.1875 40.3125 C38.72052734 40.86228516 39.25355469 41.41207031 39.80273438 41.97851562 C41.16424956 43.35715678 42.57840502 44.68339727 44 46 C44.66 46 45.32 46 46 46 C46.27204758 46.59540085 46.54409515 47.1908017 46.8243866 47.804245 C47.97476263 49.95286284 49.11856856 51.39423838 50.80981445 53.13208008 C51.37412674 53.71560745 51.93843903 54.29913483 52.51985168 54.90034485 C53.43234932 55.82559212 53.43234932 55.82559212 54.36328125 56.76953125 C54.99227829 57.40992844 55.62127533 58.05032562 56.26933289 58.71012878 C57.59884119 60.05849405 58.93125401 61.40400075 60.26635742 62.74682617 C62.30885419 64.80881939 64.32905725 66.89113773 66.34960938 68.97460938 C67.64450932 70.28256212 68.94069093 71.58924752 70.23828125 72.89453125 C70.84054031 73.52148392 71.44279938 74.14843658 72.06330872 74.79438782 C75.35824914 78.23561462 75.35824914 78.23561462 79.86401367 79.00268555 C82.15344035 78.20156786 82.15344035 78.20156786 82.9375 76.0625 C83.288125 75.381875 83.63875 74.70125 84 74 C84.90105469 73.75507812 85.80210937 73.51015625 86.73046875 73.2578125 C90.83061602 71.68045596 92.77730877 69.18822314 95.375 65.8125 C99.04192849 61.25240135 102.70639567 57.27120357 107.23828125 53.5390625 C109.029951 51.97383438 110.49117751 50.33647563 112 48.5 C114.70421546 45.20950476 117.742798 42.57287655 120.98828125 39.828125 C123.06109696 37.94447888 124.82600616 35.95699597 126.625 33.8125 C128.73328025 31.30679681 130.6647353 29.37177682 133.4375 27.625 C134.283125 27.08875 135.12875 26.5525 136 26 C136 25.34 136 24.68 136 24 C136.556875 23.79375 137.11375 23.5875 137.6875 23.375 C140.26710104 21.84118317 141.73942538 19.97648229 143.58203125 17.640625 C145.09820007 15.88638009 146.71193965 14.47388923 148.5 13 C151.79377136 10.26119668 154.42753031 7.42995959 157 4 C157 3.34 157 2.68 157 2 C105.85 2 54.7 2 2 2 Z " fill="#E5E4E2" transform="translate(106,16)"/>
<path d="M0 0 C51.81 0 103.62 0 157 0 C157.33 1.65 157.66 3.3 158 5 C157.34 5.33 156.68 5.66 156 6 C156.33 4.68 156.66 3.36 157 2 C105.85 2 54.7 2 2 2 C4.05210977 4.05210977 6.10586811 6.10284331 8.1875 8.125 C11.56148864 11.48854285 14.68268044 15.08509004 17.85546875 18.63671875 C19.46080391 20.40580394 21.12330443 22.12330443 22.8125 23.8125 C25 26 25 26 26.8125 28.375 C29.27565121 31.33078145 31.99621522 33.67706134 34.9140625 36.171875 C38.09864797 38.96286002 41.03755865 41.97764411 44 45 C46.58153954 47.60731198 49.18375481 50.1724584 51.859375 52.68359375 C52.81328125 53.59238281 53.7671875 54.50117187 54.75 55.4375 C55.24371094 55.88931641 55.73742187 56.34113281 56.24609375 56.80664062 C59.58860736 60.03468459 60.70016266 62.37296464 61 67 C62.32 67.33 63.64 67.66 65 68 C65 68.66 65 69.32 65 70 C64.01 70 63.02 70 62 70 C62 70.99 62 71.98 62 73 C62.66 73 63.32 73 64 73 C64 74.98 64 76.96 64 79 C65.485 79.495 65.485 79.495 67 80 C69.24064723 82.32363416 69.96556146 83.49490144 70.1875 86.75 C70.125625 87.4925 70.06375 88.235 70 89 C68.515 89.495 68.515 89.495 67 90 C65.64172029 91.64639965 64.30745749 93.31295807 63 95 C62.01 95.495 62.01 95.495 61 96 C61.66 96 62.32 96 63 96 C63.33 97.32 63.66 98.64 64 100 C64.99 100 65.98 100 67 100 C67 98.68 67 97.36 67 96 C68.32 96 69.64 96 71 96 C71 95.34 71 94.68 71 94 C72.65 93.34 74.3 92.68 76 92 C72.375 97.875 72.375 97.875 69 99 C67.81133558 100.71695971 66.62448367 102.43525001 65.453125 104.1640625 C63.51837471 106.60850507 61.29489552 108.10372864 58.70703125 109.80078125 C56.70341988 111.13521444 56.70341988 111.13521444 54.1875 113.8125 C53.465625 114.534375 52.74375 115.25625 52 116 C51.34 116 50.68 116 50 116 C50 116.66 50 117.32 50 118 C49.0246803 119.02408568 48.01801357 120.01834406 47 121 C46.071875 122.175625 46.071875 122.175625 45.125 123.375 C42.8974342 126.12669893 40.53233473 128.52393938 38 131 C37.26910156 131.76441406 36.53820312 132.52882812 35.78515625 133.31640625 C34.98980469 134.14011719 34.19445312 134.96382812 33.375 135.8125 C32.61960938 136.60269531 31.86421875 137.39289063 31.0859375 138.20703125 C29 140 29 140 26 140 C25.74089844 140.58652344 25.48179687 141.17304688 25.21484375 141.77734375 C23.91475016 144.15597158 22.51125162 145.68918393 20.5625 147.5625 C19.66724609 148.43068359 19.66724609 148.43068359 18.75390625 149.31640625 C18.17511719 149.87199219 17.59632812 150.42757812 17 151 C15.99772986 151.9977247 14.99694659 152.99695588 14 154 C14.33 152.02 14.66 150.04 15 148 C15.99 148 16.98 148 18 148 C18 146.68 18 145.36 18 144 C19.98 143.01 19.98 143.01 22 142 C21.938125 140.80375 21.87625 139.6075 21.8125 138.375 C21.85518162 132.30354 24.18146303 128.6767182 28.375 124.4375 C29.58105536 123.28926921 30.7896272 122.14367879 32 121 C33.669062 119.33573211 35.33536278 117.66869365 37 116 C47 106 57 96 67 86 C65.26291478 80.47291068 61.82006968 77.61351572 57.625 73.89453125 C49.77324452 66.91908776 49.77324452 66.91908776 47.3125 63.8125 C45.45785314 61.55684841 43.84501862 59.95296235 41.625 58.125 C38.99222157 55.94712929 36.76908704 53.67119857 34.5625 51.0625 C31.60476307 47.5742273 28.40026979 44.6743594 24.9140625 41.7265625 C22.47818458 39.5293012 20.45661513 37.0970217 18.37890625 34.56640625 C16.48339794 32.41315177 14.25871145 30.75677557 12 29 C9.70643739 25.55965608 9.87392501 24.6094509 10.125 20.625 C10.19658569 16.7644861 10.15159976 15.27612813 8.25 11.8125 C5.96236924 9.58178031 5.96236924 9.58178031 2 10 C0.26265853 6.19956554 0 4.40285423 0 0 Z " fill="#E5E0DA" transform="translate(106,16)"/>
<path d="M0 0 C2.83578683 1.07564328 3.86797063 1.77612411 5.4375 4.4375 C7.25924463 7.42516119 9.03218062 8.24974755 12 10 C12.30421875 10.62261719 12.6084375 11.24523437 12.921875 11.88671875 C14.17837619 14.34964318 15.54649895 15.51700897 17.6875 17.25 C21.31877455 20.30895411 24.34491304 23.60080631 27.40625 27.21875 C29.39284391 29.43906085 31.65934464 31.16543228 34 33 C35.35386936 34.65002828 36.68678142 36.3174387 38 38 C42.17288074 42.36646799 46.71858714 46.01665411 51.4765625 49.71875 C53.99277338 51.99346695 55.35548508 54.06654096 57 57 C57.721875 57.53625 58.44375 58.0725 59.1875 58.625 C59.785625 59.07875 60.38375 59.5325 61 60 C61 60.99 61 61.98 61 63 C61.5775 63.12375 62.155 63.2475 62.75 63.375 C65 64 65 64 67.0625 65.0625 C69.09134681 66.21778046 69.09134681 66.21778046 72 66 C70.75 67.5 70.75 67.5 69 69 C67.68 69 66.36 69 65 69 C65.33 69.99 65.66 70.98 66 72 C61.71 72 57.42 72 53 72 C53 71.67 53 71.34 53 71 C51.93487403 70.99365209 51.93487403 70.99365209 50.84823036 70.98717594 C33.49220858 70.8834308 16.1362247 70.77473186 -1.21973228 70.66066074 C-9.61327207 70.60561151 -18.00681609 70.55217932 -26.40039062 70.50268555 C-33.72453756 70.45949354 -41.04865677 70.41313344 -48.37276042 70.36312145 C-52.24324217 70.33679881 -56.11371944 70.3119589 -59.98423386 70.29092598 C-90.93120865 70.1208471 -90.93120865 70.1208471 -106 69 C-106 68.67 -106 68.34 -106 68 C-53.86 68 -1.72 68 52 68 C49.34088531 63.49058053 49.34088531 63.49058053 45.96875 59.9921875 C45.12376953 59.22455078 45.12376953 59.22455078 44.26171875 58.44140625 C43.68035156 57.92449219 43.09898437 57.40757812 42.5 56.875 C41.34333922 55.83118417 40.18707618 54.78692741 39.03125 53.7421875 C38.26651367 53.05938721 38.26651367 53.05938721 37.48632812 52.36279297 C36 51 36 51 34.49804688 49.39111328 C32.93703198 47.74910749 32.93703198 47.74910749 30 47 C30 46.34 30 45.68 30 45 C29.34 45 28.68 45 28 45 C26.68652344 43.66748047 26.68652344 43.66748047 25.109375 41.7421875 C20.61034567 36.45291416 15.72600028 31.57543732 10.81005859 26.6796875 C9.23546546 25.1105155 7.66636722 23.53598769 6.09765625 21.9609375 C5.0914668 20.95540789 4.08496771 19.950188 3.078125 18.9453125 C2.17481445 18.04312988 1.27150391 17.14094727 0.34082031 16.21142578 C-1.99025514 13.88503623 -1.99025514 13.88503623 -5 12 C-4.67 11.34 -4.34 10.68 -4 10 C3.46925021 16.43133951 3.46925021 16.43133951 6.625 19.8125 C9.30269736 22.2788002 11.50318592 23.10546617 15 24 C15.495 22.515 15.495 22.515 16 21 C15.34 21 14.68 21 14 21 C11 15.375 11 15.375 11 12 C10.34 12 9.68 12 9 12 C9 11.34 9 10.68 9 10 C7.02 9.34 5.04 8.68 3 8 C3 6.68 3 5.36 3 4 C2.34 4 1.68 4 1 4 C0.505 2.02 0.505 2.02 0 0 Z " fill="#EDDCD3" transform="translate(212,117)"/>
<path d="M0 0 C51.81 0 103.62 0 157 0 C157.33 1.65 157.66 3.3 158 5 C157.34 5.33 156.68 5.66 156 6 C156.33 4.68 156.66 3.36 157 2 C105.85 2 54.7 2 2 2 C4.05210977 4.05210977 6.10586811 6.10284331 8.1875 8.125 C11.56148864 11.48854285 14.68268044 15.08509004 17.85546875 18.63671875 C19.46080391 20.40580394 21.12330443 22.12330443 22.8125 23.8125 C25 26 25 26 26.8125 28.375 C29.27565121 31.33078145 31.99621522 33.67706134 34.9140625 36.171875 C38.09832094 38.96257341 41.04079026 41.97470369 44 45 C44.78375 45.78375 45.5675 46.5675 46.375 47.375 C50.25 51.25 54.125 55.125 58 59 C54.25 60.125 54.25 60.125 52 59 C52 58.34 52 57.68 52 57 C49.36 57.33 46.72 57.66 44 58 C43.67 56.35 43.34 54.7 43 53 C41.35 52.67 39.7 52.34 38 52 C37.67 51.01 37.34 50.02 37 49 C36.34 49 35.68 49 35 49 C34.505 46.03 34.505 46.03 34 43 C31.03 42.505 31.03 42.505 28 42 C27.67 39.36 27.34 36.72 27 34 C26.01 34 25.02 34 24 34 C24 34.66 24 35.32 24 36 C23.34 36 22.68 36 22 36 C21.67 35.01 21.34 34.02 21 33 C20.113125 32.95875 19.22625 32.9175 18.3125 32.875 C14.83459615 31.95630842 13.08613341 30.8772022 10.88671875 28.01171875 C9.38819832 24.61199179 9.90031935 21.21723142 10.07421875 17.5703125 C10.18875757 14.76987298 10.18875757 14.76987298 8.25 11.8125 C5.96236924 9.58178031 5.96236924 9.58178031 2 10 C0.26265853 6.19956554 0 4.40285423 0 0 Z M35 41 C35.33 41.66 35.66 42.32 36 43 C36.33 42.34 36.66 41.68 37 41 C36.34 41 35.68 41 35 41 Z " fill="#E3E3DB" transform="translate(106,16)"/>
<path d="M0 0 C0.99 0.495 0.99 0.495 2 1 C1.34 2.65 0.68 4.3 0 6 C2.31 6.33 4.62 6.66 7 7 C5.625 9 5.625 9 4 11 C3.34 11 2.68 11 2 11 C1.66935547 11.81984375 1.66935547 11.81984375 1.33203125 12.65625 C-0.42315271 15.74455023 -2.79097888 18.04210292 -5.3125 20.5 C-6.0230957 21.20962891 -6.0230957 21.20962891 -6.74804688 21.93359375 C-9.00945083 24.16715552 -11.30323467 26.24089132 -13.79296875 28.21875 C-16.07861305 29.81126918 -16.07861305 29.81126918 -17 32 C-17.66 32 -18.32 32 -19 32 C-19.33 32.99 -19.66 33.98 -20 35 C-20.66 35 -21.32 35 -22 35 C-22.20625 35.556875 -22.4125 36.11375 -22.625 36.6875 C-24.16872935 39.28377209 -26.06393357 40.78344994 -28.4140625 42.640625 C-30.95943953 44.82237674 -32.90085026 47.39024626 -35 50 C-36.6875 51.875 -36.6875 51.875 -38 53 C-38.66 53 -39.32 53 -40 53 C-40.66 54.32 -41.32 55.64 -42 57 C-42.6875 55.25 -42.6875 55.25 -43 53 C-41.8125 50.75 -41.8125 50.75 -40 49 C-38.68 49 -37.36 49 -36 49 C-36 48.01 -36 47.02 -36 46 C-35.01 45.505 -35.01 45.505 -34 45 C-33.67 44.01 -33.34 43.02 -33 42 C-38.06551805 43.2958302 -40.43575303 45.25297114 -44 49 C-45.66279327 50.0064275 -47.32983484 51.00585407 -49 52 C-53.61575992 55.55222077 -57.4067284 59.42674523 -61 64 C-61.66 63.67 -62.32 63.34 -63 63 C-57.8612014 57.17673028 -52.75294663 51.61247517 -46.796875 46.609375 C-44.45750558 44.5141137 -42.54853531 42.16745895 -40.55859375 39.74609375 C-38.84991464 37.83185926 -37.02042041 36.21978004 -35.0625 34.5625 C-31.53986338 31.57869881 -28.57355881 28.35626069 -25.640625 24.796875 C-23.89781218 22.88808001 -22.15767128 21.42090548 -20 20 C-19.34 20 -18.68 20 -18 20 C-18 19.34 -18 18.68 -18 18 C-13.69767442 13.23255814 -13.69767442 13.23255814 -10 12 C-9.67 11.01 -9.34 10.02 -9 9 C-7.51447725 7.74053506 -6.02579359 6.48380261 -4.5 5.2734375 C-2.67093274 3.72063561 -1.32763749 1.99145624 0 0 Z " fill="#DFE4DE" transform="translate(260,22)"/>
<path d="M0 0 C2.83578683 1.07564328 3.86797063 1.77612411 5.4375 4.4375 C7.25924463 7.42516119 9.03218062 8.24974755 12 10 C12.30421875 10.62261719 12.6084375 11.24523437 12.921875 11.88671875 C14.17837619 14.34964318 15.54649895 15.51700897 17.6875 17.25 C21.31877455 20.30895411 24.34491304 23.60080631 27.40625 27.21875 C29.39284391 29.43906085 31.65934464 31.16543228 34 33 C35.35386936 34.65002828 36.68678142 36.3174387 38 38 C41.7591486 41.96234582 45.82068915 45.49516007 50 49 C48.66666667 49.33333333 47.33333333 49.66666667 46 50 C45.2575 50.185625 44.515 50.37125 43.75 50.5625 C43.1725 50.706875 42.595 50.85125 42 51 C42 52.65 42 54.3 42 56 C41.55269531 55.60167969 41.10539062 55.20335937 40.64453125 54.79296875 C37.86151035 52.35411675 35.25172094 50.14996141 32.0625 48.25 C31.0415625 47.63125 31.0415625 47.63125 30 47 C30 46.34 30 45.68 30 45 C29.34 45 28.68 45 28 45 C26.68652344 43.66748047 26.68652344 43.66748047 25.109375 41.7421875 C20.61034567 36.45291416 15.72600028 31.57543732 10.81005859 26.6796875 C9.23546546 25.1105155 7.66636722 23.53598769 6.09765625 21.9609375 C5.0914668 20.95540789 4.08496771 19.950188 3.078125 18.9453125 C2.17481445 18.04312988 1.27150391 17.14094727 0.34082031 16.21142578 C-1.99025514 13.88503623 -1.99025514 13.88503623 -5 12 C-4.67 11.34 -4.34 10.68 -4 10 C3.46925021 16.43133951 3.46925021 16.43133951 6.625 19.8125 C9.30269736 22.2788002 11.50318592 23.10546617 15 24 C15.33 23.01 15.66 22.02 16 21 C15.34 21 14.68 21 14 21 C11 15.375 11 15.375 11 12 C10.34 12 9.68 12 9 12 C9 11.34 9 10.68 9 10 C7.02 9.34 5.04 8.68 3 8 C3 6.68 3 5.36 3 4 C2.34 4 1.68 4 1 4 C0.67 2.68 0.34 1.36 0 0 Z " fill="#EBD4CC" transform="translate(212,117)"/>
<path d="M0 0 C0.33 1.32 0.66 2.64 1 4 C1.99 4 2.98 4 4 4 C4.33 5.65 4.66 7.3 5 9 C6.32 8.67 7.64 8.34 9 8 C13.94080338 12.57928118 13.94080338 12.57928118 14.109375 16.625 C13.84066832 19.11407237 13.4899513 21.5453925 13 24 C9.61877547 22.45171854 8.20661455 20.97413266 6 18 C5.01 17.67 4.02 17.34 3 17 C1.46484375 15.29296875 1.46484375 15.29296875 -0.0625 13.1875 C-0.56910156 12.50042969 -1.07570313 11.81335937 -1.59765625 11.10546875 C-2.91619283 9.12582747 -3.98998171 7.15051741 -5 5 C-5.99 5 -6.98 5 -8 5 C-8 56.81 -8 108.62 -8 162 C-7.01 161.67 -6.02 161.34 -5 161 C-5 161.66 -5 162.32 -5 163 C-5.99 163.33 -6.98 163.66 -8 164 C-8.66 163.67 -9.32 163.34 -10 163 C-10.023334 142.30351852 -10.04098165 121.60703921 -10.05181217 100.91054726 C-10.05697406 91.30136298 -10.06401473 81.69218686 -10.07543945 72.08300781 C-10.08538955 63.71014411 -10.09185421 55.33728631 -10.09408849 46.96441686 C-10.09539504 42.52880775 -10.09847741 38.09321555 -10.10573006 33.65761185 C-10.11249539 29.48641653 -10.1146159 25.31524516 -10.11310768 21.14404488 C-10.11338378 19.60972908 -10.11538587 18.07541252 -10.11920547 16.54110146 C-10.12415073 14.4529591 -10.12299519 12.3649082 -10.12025452 10.27676392 C-10.12117631 9.10608683 -10.1220981 7.93540974 -10.12304783 6.72925758 C-10 4 -10 4 -9 2 C-6.6875 1.4375 -6.6875 1.4375 -4 1 C-2.66457061 0.67516582 -1.33038449 0.3449145 0 0 Z " fill="#C0DEEC" transform="translate(103,17)"/>
<path d="M0 0 C0.495 0.99 0.495 0.99 1 2 C0.34 2 -0.32 2 -1 2 C-1.0928125 3.0828125 -1.0928125 3.0828125 -1.1875 4.1875 C-2.84172047 9.91364778 -8.05485191 13.09741308 -13 16 C-13.99 16 -14.98 16 -16 16 C-16.2475 16.94875 -16.495 17.8975 -16.75 18.875 C-18.22270942 22.55677355 -18.67546755 22.35892843 -22 24 C-23.85794288 25.90372687 -23.85794288 25.90372687 -25.5625 28.0625 C-28.67024793 31.89008264 -28.67024793 31.89008264 -32 33 C-32 34.65 -32 36.3 -32 38 C-33.98 38.66 -35.96 39.32 -38 40 C-38 40.66 -38 41.32 -38 42 C11.5 42 61 42 112 42 C110.02 39.525 110.02 39.525 108 37 C108.33 36.34 108.66 35.68 109 35 C110.00894372 35.92786789 111.00690907 36.86768433 112 37.8125 C112.556875 38.33457031 113.11375 38.85664063 113.6875 39.39453125 C115 41 115 41 115 44 C62.86 44 10.72 44 -43 44 C-41.92122472 39.68489889 -41.40481575 39.14307496 -38.125 36.5 C-35.90899707 34.70103083 -34.11411655 33.15669735 -32.4296875 30.84375 C-31 29 -31 29 -28 28 C-26.24986662 26.31097201 -26.24986662 26.31097201 -24.5625 24.25 C-23.94761719 23.52941406 -23.33273438 22.80882812 -22.69921875 22.06640625 C-21.38678607 20.47036743 -20.12066666 18.83617646 -18.875 17.1875 C-17 15 -17 15 -14.75 13.6875 C-10.54993481 11.11018727 -7.40673347 7.52864441 -4 4 C-2.66898349 2.66435386 -1.33630619 1.33035383 0 0 Z " fill="#EC9450" transform="translate(149,141)"/>
<path d="M0 0 C0.33 1.32 0.66 2.64 1 4 C1.66 4 2.32 4 3 4 C3 3.34 3 2.68 3 2 C3.99 2 4.98 2 6 2 C7.35439668 4.70879335 7.06501451 7.00933268 7 10 C8.98 10 10.96 10 13 10 C14 14.75 14 14.75 14 17 C14.66 17 15.32 17 16 17 C16.66 17.99 17.32 18.98 18 20 C20.56282742 20.72965366 20.56282742 20.72965366 23 21 C23.33 21.99 23.66 22.98 24 24 C23.67 24.66 23.34 25.32 23 26 C23.94875 25.649375 24.8975 25.29875 25.875 24.9375 C29 24 29 24 31 25 C31 25.66 31 26.32 31 27 C33.31 27.33 35.62 27.66 38 28 C38.2475 28.94875 38.495 29.8975 38.75 30.875 C39.6857077 34.08693191 39.6857077 34.08693191 42.125 35.375 C42.74375 35.58125 43.3625 35.7875 44 36 C44 36.66 44 37.32 44 38 C43.01 38 42.02 38 41 38 C41 38.99 41 39.98 41 41 C41.66 41 42.32 41 43 41 C43 42.98 43 44.96 43 47 C43.99 47.33 44.98 47.66 46 48 C48.24064723 50.32363416 48.96556146 51.49490144 49.1875 54.75 C49.0946875 55.86375 49.0946875 55.86375 49 57 C48.01 57.33 47.02 57.66 46 58 C45.34 58.825 44.68 59.65 44 60.5 C42 63 42 63 39 64 C38.85433594 64.60328125 38.70867187 65.2065625 38.55859375 65.828125 C37.80281947 68.76665998 36.35566463 69.80931095 34.0625 71.75 C33.35222656 72.36359375 32.64195312 72.9771875 31.91015625 73.609375 C30 75 30 75 28 75 C27.79375 75.556875 27.5875 76.11375 27.375 76.6875 C25.17315695 80.39059968 21.99299493 83.41486804 17.8046875 84.64453125 C17.20914063 84.76183594 16.61359375 84.87914062 16 85 C20.47558842 79.63210431 25.2175146 74.66043719 30.1875 69.75 C30.89841797 69.04359375 31.60933594 68.3371875 32.34179688 67.609375 C33.65533026 66.30449142 34.96989657 65.00064608 36.28588867 63.69824219 C37.86195198 62.13676998 39.43241154 60.56997363 41 59 C42.66666667 57.33333333 44.33333333 55.66666667 46 54 C44.26291478 48.47291068 40.82006968 45.61351572 36.625 41.89453125 C28.77324452 34.91908776 28.77324452 34.91908776 26.3125 31.8125 C24.45785314 29.55684841 22.84501862 27.95296235 20.625 26.125 C17.99222157 23.94712929 15.76908704 21.67119857 13.5625 19.0625 C10.5834518 15.55458706 7.3655319 12.58264197 3.8671875 9.6015625 C1.4262029 7.50783094 -0.82923886 5.37426999 -3 3 C-3 2.34 -3 1.68 -3 1 C-2.01 0.67 -1.02 0.34 0 0 Z M14 9 C14.99 9.495 14.99 9.495 16 10 C15.01 10.495 15.01 10.495 14 11 C14 10.34 14 9.68 14 9 Z " fill="#E5E5E2" transform="translate(127,48)"/>
<path d="M0 0 C0.99 0 1.98 0 3 0 C4.82421875 1.96875 4.82421875 1.96875 6.6875 4.5 C7.31011719 5.3353125 7.93273437 6.170625 8.57421875 7.03125 C9.04472656 7.6809375 9.51523438 8.330625 10 9 C9.01 9.495 9.01 9.495 8 10 C8 9.34 8 8.68 8 8 C6.35 8.66 4.7 9.32 3 10 C3 55.21 3 100.42 3 147 C3.99 147 4.98 147 6 147 C6.99 147.33 7.98 147.66 9 148 C9 147.01 9 146.02 9 145 C10.32 145.33 11.64 145.66 13 146 C11.21427748 147.83947337 9.42197551 149.67157741 7.625 151.5 C7.11710937 152.02464844 6.60921875 152.54929688 6.0859375 153.08984375 C4.76167396 154.43153181 3.38394135 155.71995815 2 157 C1.34 157 0.68 157 0 157 C0 105.19 0 53.38 0 0 Z " fill="#36A1D1" transform="translate(95,22)"/>
<path d="M0 0 C51.81 0 103.62 0 157 0 C157.33 1.65 157.66 3.3 158 5 C157.34 5.33 156.68 5.66 156 6 C156.33 4.68 156.66 3.36 157 2 C105.85 2 54.7 2 2 2 C4.09377591 4.09377591 6.19024134 6.18509968 8.3125 8.25 C11.69155105 11.70763363 14.84633109 15.33738164 18 19 C17.01 19 16.02 19 15 19 C13.9926892 17.67218122 12.99387334 16.33790641 12 15 C10.34738161 13.97695052 8.68208635 12.97383946 7 12 C6.67 11.34 6.34 10.68 6 10 C4.68 10 3.36 10 2 10 C0.26265853 6.19956554 0 4.40285423 0 0 Z " fill="#F0D786" transform="translate(106,16)"/>
<path d="M0 0 C0.99 0 1.98 0 3 0 C3 52.14 3 104.28 3 158 C2.01 158 1.02 158 0 158 C-0.33 157.01 -0.66 156.02 -1 155 C-0.34 155 0.32 155 1 155 C1 105.5 1 56 1 5 C-4.83333333 8.33333333 -4.83333333 8.33333333 -7 12 C-7.99 12 -8.98 12 -10 12 C-10 11.34 -10 10.68 -10 10 C-8.3203125 8.37890625 -8.3203125 8.37890625 -6.125 6.5625 C-3.53806278 4.41599116 -1.88815626 2.83223438 0 0 Z " fill="#7479A8" transform="translate(84,22)"/>
<path d="M0 0 C2.29633824 3.44450737 2.54016485 5.93812283 3 10 C3.99 10 4.98 10 6 10 C6 25.51 6 41.02 6 57 C5.34 57 4.68 57 4 57 C3.93941406 56.00097656 3.87882812 55.00195312 3.81640625 53.97265625 C3.73261719 52.68230469 3.64882812 51.39195313 3.5625 50.0625 C3.48128906 48.77472656 3.40007812 47.48695312 3.31640625 46.16015625 C3.35080812 43.13976043 3.35080812 43.13976043 2 42 C1.67 80.28 1.34 118.56 1 158 C0.67 158 0.34 158 0 158 C0 105.86 0 53.72 0 0 Z " fill="#DBDDE6" transform="translate(87,22)"/>
<path d="M0 0 C52.8 0 105.6 0 160 0 C159.67 1.32 159.34 2.64 159 4 C158.01 3.505 158.01 3.505 157 3 C154.9348126 2.90581369 152.86649721 2.87809689 150.79916382 2.87974548 C150.15633725 2.87889106 149.51351068 2.87803663 148.85120451 2.87715632 C146.68772167 2.87550342 144.5243156 2.88101977 142.36083984 2.88647461 C140.8137665 2.88675655 139.26669302 2.88659862 137.71961975 2.8860321 C133.51118307 2.88574439 129.3027747 2.89163692 125.09434462 2.89860606 C120.69942333 2.90484393 116.30450145 2.90544374 111.90957642 2.90663147 C103.58334283 2.9097435 95.25712232 2.91795518 86.93089449 2.92798096 C77.45340024 2.93914606 67.97590537 2.94465355 58.49840617 2.94967639 C38.99893002 2.96013789 19.49946606 2.97773487 0 3 C0 2.01 0 1.02 0 0 Z " fill="#EA9AA0" transform="translate(200,104)"/>
<path d="M0 0 C51.48 0 102.96 0 156 0 C155.00102287 2.99693138 154.34869747 4.02709413 152 6 C151.34 6 150.68 6 150 6 C150 5.01 150 4.02 150 3 C150.66 3 151.32 3 152 3 C152 2.34 152 1.68 152 1 C103.49 1 54.98 1 5 1 C5.33 2.65 5.66 4.3 6 6 C7.32 6.33 8.64 6.66 10 7 C10 7.99 10 8.98 10 10 C10.66 10 11.32 10 12 10 C11.67 10.66 11.34 11.32 11 12 C9.72175189 10.94643208 8.45272507 9.88167217 7.1875 8.8125 C6.47980469 8.22082031 5.77210938 7.62914063 5.04296875 7.01953125 C3 5 3 5 0 0 Z " fill="#D83746" transform="translate(202,106)"/>
<path d="M0 0 C1.17539996 0.92652701 2.34010577 1.86663387 3.5 2.8125 C4.47453125 3.59560547 4.47453125 3.59560547 5.46875 4.39453125 C7 6 7 6 7 9 C-45.14 9 -97.28 9 -151 9 C-150.67 7.68 -150.34 6.36 -150 5 C-149.01 5 -148.02 5 -147 5 C-147 5.66 -147 6.32 -147 7 C-71.76 7.495 -71.76 7.495 5 8 C2.525 5.03 2.525 5.03 0 2 C0 1.34 0 0.68 0 0 Z " fill="#E8B288" transform="translate(257,176)"/>
<path d="M0 0 C1.76845984 0.00138269 1.76845984 0.00138269 3.57264614 0.00279331 C4.22686894 0.00193889 4.88109175 0.00108446 5.55513948 0.00020415 C7.7631863 -0.00145245 9.97115836 0.00407361 12.17919827 0.00952244 C13.75568038 0.0098043 15.33216263 0.0096466 16.90864468 0.00907993 C21.20184837 0.00879191 25.49502437 0.01468943 29.7882216 0.02165389 C34.26989971 0.02788661 38.75157838 0.02849116 43.23326015 0.0296793 C51.72598196 0.03279286 60.21869097 0.04100657 68.71140712 0.05102879 C78.37750826 0.06218917 88.04360999 0.06770019 97.70971596 0.07272422 C117.59920876 0.08318917 137.48869001 0.10078908 157.37817287 0.12304783 C158.50317287 4.87304783 158.50317287 4.87304783 157.37817287 7.12304783 C156.38817287 6.62804783 156.38817287 6.62804783 155.37817287 6.12304783 C155.37817287 4.80304783 155.37817287 3.48304783 155.37817287 2.12304783 C77.66317287 1.62804783 77.66317287 1.62804783 -1.62182713 1.12304783 C-1.62182713 2.77304783 -1.62182713 4.42304783 -1.62182713 6.12304783 C-2.28182713 6.12304783 -2.94182713 6.12304783 -3.62182713 6.12304783 C-3.66454813 4.45692878 -3.66246545 2.78921898 -3.62182713 1.12304783 C-2.62182713 0.12304783 -2.62182713 0.12304783 0 0 Z " fill="#EBE5CF" transform="translate(107.62182712554932,14.876952171325684)"/>
<path d="M0 0 C0.67095703 0.58007812 0.67095703 0.58007812 1.35546875 1.171875 C1.96003906 1.69265625 2.56460938 2.2134375 3.1875 2.75 C3.83074219 3.30429687 4.47398437 3.85859375 5.13671875 4.4296875 C6.55377264 5.62393417 8.017458 6.7630935 9.5 7.875 C13.06966717 10.90921709 15.98990275 14.42079552 19 18 C19.51433594 18.61101562 20.02867187 19.22203125 20.55859375 19.8515625 C21.7113735 21.22967314 22.85661797 22.61408239 24 24 C22.02 23.67 20.04 23.34 18 23 C18 22.34 18 21.68 18 21 C14.04 21.495 14.04 21.495 10 22 C9.67 20.35 9.34 18.7 9 17 C7.35 16.67 5.7 16.34 4 16 C3.67 15.01 3.34 14.02 3 13 C2.34 13 1.68 13 1 13 C0 10 0 10 0.9375 7.8125 C1.288125 7.214375 1.63875 6.61625 2 6 C1.34 5.67 0.68 5.34 0 5 C0 3.35 0 1.7 0 0 Z " fill="#E7E5DE" transform="translate(140,52)"/>
<path d="M0 0 C2.04119788 1.61594832 4.04072937 3.2856382 6 5 C6 5.66 6 6.32 6 7 C-45.15 7 -96.3 7 -149 7 C-149 6.67 -149 6.34 -149 6 C-99.5 5.67 -50 5.34 1 5 C0.67 3.35 0.34 1.7 0 0 Z " fill="#509B5E" transform="translate(352,89)"/>
<path d="M0 0 C51.15 0 102.3 0 155 0 C154.67 1.32 154.34 2.64 154 4 C153.01 3.505 153.01 3.505 152 3 C152.33 2.34 152.66 1.68 153 1 C103.83 1.33 54.66 1.66 4 2 C4 2.66 4 3.32 4 4 C2.68 3.34 1.36 2.68 0 2 C0 1.34 0 0.68 0 0 Z " fill="#F5C424" transform="translate(108,18)"/>
<path d="M0 0 C0.495 1.485 0.495 1.485 1 3 C0.44570313 3.45890625 -0.10859375 3.9178125 -0.6796875 4.390625 C-1.40414062 5.00421875 -2.12859375 5.6178125 -2.875 6.25 C-3.59429687 6.85328125 -4.31359375 7.4565625 -5.0546875 8.078125 C-6.97052118 9.97087634 -7.96449045 11.53657727 -9 14 C-9.99 14 -10.98 14 -12 14 C-12.0928125 14.804375 -12.0928125 14.804375 -12.1875 15.625 C-13.35705515 19.04369966 -15.67594796 21.26923885 -18 24 C-18.33 24.99 -18.66 25.98 -19 27 C-20.423125 27.12375 -20.423125 27.12375 -21.875 27.25 C-22.90625 27.4975 -23.9375 27.745 -25 28 C-26.16666667 29.91666667 -26.16666667 29.91666667 -27 32 C-28.33333333 32.66666667 -29.66666667 33.33333333 -31 34 C-32.09166275 35.93330603 -32.09166275 35.93330603 -33 38 C-34.5 39.75 -34.5 39.75 -36 41 C-36.66 41 -37.32 41 -38 41 C-38.33 41.99 -38.66 42.98 -39 44 C-41.475 44.495 -41.475 44.495 -44 45 C-44.33 45.99 -44.66 46.98 -45 48 C-45.66 47.67 -46.32 47.34 -47 47 C-32 32 -32 32 -29.39453125 29.4296875 C-27.38397139 27.38960881 -25.5228182 25.32009521 -23.6875 23.125 C-20.7303372 19.70797603 -17.57410915 16.78518585 -14.125 13.875 C-10.8664472 10.99980635 -7.88813172 7.85886916 -4.8828125 4.72265625 C-3 3 -3 3 -1 3 C-0.67 2.01 -0.34 1.02 0 0 Z " fill="#EEC1C5" transform="translate(349,115)"/>
<path d="M0 0 C0.33 1.32 0.66 2.64 1 4 C1.66 4 2.32 4 3 4 C3 3.34 3 2.68 3 2 C3.99 2 4.98 2 6 2 C7.35439668 4.70879335 7.06501451 7.00933268 7 10 C8.98 10 10.96 10 13 10 C14 14.75 14 14.75 14 17 C14.66 17 15.32 17 16 17 C16.66 17.99 17.32 18.98 18 20 C20.56282742 20.72965366 20.56282742 20.72965366 23 21 C23.33 21.99 23.66 22.98 24 24 C23.67 24.66 23.34 25.32 23 26 C23.66 26 24.32 26 25 26 C25.2475 26.61875 25.495 27.2375 25.75 27.875 C27.20628639 30.35068687 28.37812506 30.95125002 31 32 C31 32.99 31 33.98 31 35 C31.99 35 32.98 35 34 35 C34.495 36.98 34.495 36.98 35 39 C35.66 39 36.32 39 37 39 C36.505 39.99 36.505 39.99 36 41 C31.46377321 37.31349869 27.75151494 33.50181793 24 29 C22.89279246 28.02116435 21.76652565 27.06358775 20.625 26.125 C17.99222157 23.94712929 15.76908704 21.67119857 13.5625 19.0625 C10.5834518 15.55458706 7.3655319 12.58264197 3.8671875 9.6015625 C1.4262029 7.50783094 -0.82923886 5.37426999 -3 3 C-3 2.34 -3 1.68 -3 1 C-2.01 0.67 -1.02 0.34 0 0 Z M14 9 C14.99 9.495 14.99 9.495 16 10 C15.01 10.495 15.01 10.495 14 11 C14 10.34 14 9.68 14 9 Z " fill="#CBE1ED" transform="translate(127,48)"/>
<path d="M0 0 C0 0.66 0 1.32 0 2 C-0.66 2 -1.32 2 -2 2 C-2.66 3.32 -3.32 4.64 -4 6 C-4.66 6 -5.32 6 -6 6 C-6.10183594 6.58136719 -6.20367187 7.16273437 -6.30859375 7.76171875 C-8.30836525 14.23555529 -15.21035326 19.23087583 -20.21875 23.46875 C-22.12371129 25.06024929 -22.12371129 25.06024929 -24.1875 27.25 C-26 29 -26 29 -28.3125 30.375 C-34.2208569 33.94749487 -38.75895279 38.60230355 -43 44 C-43.66 43.67 -44.32 43.34 -45 43 C-39.8612014 37.17673028 -34.75294663 31.61247517 -28.796875 26.609375 C-26.45750558 24.5141137 -24.54853531 22.16745895 -22.55859375 19.74609375 C-20.84991464 17.83185926 -19.02042041 16.21978004 -17.0625 14.5625 C-13.53986338 11.57869881 -10.57355881 8.35626069 -7.640625 4.796875 C-3.26086957 0 -3.26086957 0 0 0 Z " fill="#EEE0BA" transform="translate(242,42)"/>
<path d="M0 0 C3.8718417 1.25573244 6.02838671 2.36808079 8 6 C8.1875 8.75 8.1875 8.75 8 11 C7.01 11.33 6.02 11.66 5 12 C4.34 12.825 3.68 13.65 3 14.5 C1 17 1 17 -2 18 C-2.14566406 18.60328125 -2.29132813 19.2065625 -2.44140625 19.828125 C-3.19718053 22.76665998 -4.64433537 23.80931095 -6.9375 25.75 C-7.64777344 26.36359375 -8.35804688 26.9771875 -9.08984375 27.609375 C-11 29 -11 29 -13 29 C-13.309375 29.8353125 -13.309375 29.8353125 -13.625 30.6875 C-15.82684305 34.39059968 -19.00700507 37.41486804 -23.1953125 38.64453125 C-23.79085937 38.76183594 -24.38640625 38.87914062 -25 39 C-20.52441158 33.63210431 -15.7824854 28.66043719 -10.8125 23.75 C-10.10158203 23.04359375 -9.39066406 22.3371875 -8.65820312 21.609375 C-7.34466974 20.30449142 -6.03010343 19.00064608 -4.71411133 17.69824219 C-3.13804802 16.13676998 -1.56758846 14.56997363 0 13 C1.66666667 11.33333333 3.33333333 9.66666667 5 8 C3.8141763 4.62496331 2.72426311 2.35277269 0 0 Z " fill="#BEDDEC" transform="translate(168,94)"/>
<path d="M0 0 C3.42280517 1.46582015 5.56480483 3.38062255 8.125 6.0625 C10.77905 8.91571933 10.77905 8.91571933 14 11 C14 11.66 14 12.32 14 13 C14.66 13 15.32 13 16 13 C16 13.66 16 14.32 16 15 C17.32 15 18.64 15 20 15 C20.33 14.34 20.66 13.68 21 13 C21.33 15.31 21.66 17.62 22 20 C23.32 20.33 24.64 20.66 26 21 C25.67 22.32 25.34 23.64 25 25 C24.45730469 24.43410156 23.91460937 23.86820313 23.35546875 23.28515625 C22.64003906 22.55167969 21.92460937 21.81820312 21.1875 21.0625 C20.47980469 20.33160156 19.77210938 19.60070312 19.04296875 18.84765625 C17.04463837 16.79165354 17.04463837 16.79165354 14 16 C14 15.34 14 14.68 14 14 C13.34 14 12.68 14 12 14 C10.44921875 12.4609375 10.44921875 12.4609375 8.6875 10.375 C8.07132813 9.65054688 7.45515625 8.92609375 6.8203125 8.1796875 C5.91925781 7.10074219 5.91925781 7.10074219 5 6 C4.48179687 5.38382813 3.96359375 4.76765625 3.4296875 4.1328125 C2.28041165 2.76024877 1.1392439 1.3809017 0 0 Z M21 7 C24.39997948 8.13332649 25.48048355 9.62437747 27.66015625 12.3671875 C29.61622629 14.75096965 31.78935494 16.85251622 34 19 C32.88625 18.979375 31.7725 18.95875 30.625 18.9375 C27.16784079 18.73619282 27.16784079 18.73619282 25 20 C25.66 18.02 26.32 16.04 27 14 C25.35 14.33 23.7 14.66 22 15 C21.67 12.36 21.34 9.72 21 7 Z " fill="#EDC5AF" transform="translate(228,148)"/>
<path d="M0 0 C0.33 0.66 0.66 1.32 1 2 C0.67 2.66 0.34 3.32 0 4 C-0.06950541 5.54023996 -0.08452357 7.08334988 -0.0625 8.625 C-0.05347656 9.44226563 -0.04445312 10.25953125 -0.03515625 11.1015625 C-0.02355469 11.72804687 -0.01195312 12.35453125 0 13 C-1.65 13.33 -3.3 13.66 -5 14 C-5 14.99 -5 15.98 -5 17 C-5.598125 16.690625 -6.19625 16.38125 -6.8125 16.0625 C-9.08956772 14.89790296 -9.08956772 14.89790296 -12 14 C-12.33 15.65 -12.66 17.3 -13 19 C-14.98 19.33 -16.96 19.66 -19 20 C-15.4914429 15.81625666 -11.91473058 11.81435287 -8 8 C-7.13375 7.13375 -6.2675 6.2675 -5.375 5.375 C-2.6875 2.6875 -2.6875 2.6875 0 0 Z " fill="#E1E5E7" transform="translate(129,146)"/>
<path d="M0 0 C1.65 0.33 3.3 0.66 5 1 C5 1.66 5 2.32 5 3 C5.66 3 6.32 3 7 3 C7 3.66 7 4.32 7 5 C7.639375 5.2475 8.27875 5.495 8.9375 5.75 C11 7 11 7 11.75 9.125 C11.87375 10.053125 11.87375 10.053125 12 11 C12.99 11 13.98 11 15 11 C15.33 10.01 15.66 9.02 16 8 C16.66 8 17.32 8 18 8 C18 9.32 18 10.64 18 12 C17.34 12 16.68 12 16 12 C16 12.66 16 13.32 16 14 C17.32 13.67 18.64 13.34 20 13 C19.67 13.99 19.34 14.98 19 16 C19 16.99 19 17.98 19 19 C17.68103535 18.07161713 16.37001311 17.13194268 15.0625 16.1875 C14.33160156 15.66542969 13.60070312 15.14335938 12.84765625 14.60546875 C11 13 11 13 10 10 C9.34 10 8.68 10 8 10 C6.68251535 8.2433538 5.5641447 6.40106106 4.4140625 4.53125 C3.71410156 3.77328125 3.71410156 3.77328125 3 3 C1.68 3 0.36 3 -1 3 C-0.67 2.01 -0.34 1.02 0 0 Z M18 3 C20.64752004 5.57784846 22.94432065 7.91648098 25 11 C23.68 11.33 22.36 11.66 21 12 C20.01 9.03 19.02 6.06 18 3 Z " fill="#EFCFCB" transform="translate(184,104)"/>
<path d="M0 0 C5.66129431 4.69766975 10.85228904 9.74723372 16 15 C12.28125 17.046875 12.28125 17.046875 9.75 16.625 C8.88375 16.315625 8.88375 16.315625 8 16 C7.67 16.99 7.34 17.98 7 19 C6.01 18.34 5.02 17.68 4 17 C3.8125 13.875 3.8125 13.875 4 11 C3.34 11 2.68 11 2 11 C2 10.01 2 9.02 2 8 C2.99 8 3.98 8 5 8 C4.67 7.34 4.34 6.68 4 6 C1.97536745 5.34786708 1.97536745 5.34786708 0 5 C0 3.35 0 1.7 0 0 Z " fill="#E8E4CF" transform="translate(166,78)"/>
<path d="M0 0 C0.66 0.33 1.32 0.66 2 1 C1.28714844 1.61746094 0.57429688 2.23492187 -0.16015625 2.87109375 C-4.84443576 7.01318209 -9.13309253 10.90352343 -12.8125 16 C-15.52660684 19.7253726 -17.46763692 20.84055828 -22 22 C-22.68268138 23.32520503 -23.3507041 24.65812182 -24 26 C-26.2578125 26.8984375 -26.2578125 26.8984375 -29 27 C-31.45703125 25.12890625 -31.45703125 25.12890625 -33.8125 22.5625 C-34.60269531 21.71816406 -35.39289063 20.87382813 -36.20703125 20.00390625 C-36.79871094 19.34261719 -37.39039063 18.68132812 -38 18 C-37.01 18 -36.02 18 -35 18 C-34.236875 18.804375 -33.47375 19.60875 -32.6875 20.4375 C-29.67062507 23.31405517 -28.07710437 23.71555086 -24 24 C-24 23.01 -24 22.02 -24 21 C-23.01 21 -22.02 21 -21 21 C-21 20.01 -21 19.02 -21 18 C-19.6078125 17.3503125 -19.6078125 17.3503125 -18.1875 16.6875 C-14.68397542 14.83269287 -12.7659129 13.53182579 -11 10 C-8.97001359 5.94002718 -5.82506504 4.25580758 -2 2 C-1.34 1.34 -0.68 0.68 0 0 Z " fill="#F3C838" transform="translate(212,68)"/>
<path d="M0 0 C0.33 0.99 0.66 1.98 1 3 C2.65 3.33 4.3 3.66 6 4 C6.66 6.31 7.32 8.62 8 11 C9.32 11 10.64 11 12 11 C11.49396008 13.16874252 11.00016187 14.99967627 10 17 C9.01 17 8.02 17 7 17 C6.34 15.35 5.68 13.7 5 12 C3.68 12 2.36 12 1 12 C1 11.34 1 10.68 1 10 C0.34 10 -0.32 10 -1 10 C-2.31223496 6.06329512 -1.24296256 3.87511856 0 0 Z " fill="#E6E4E4" transform="translate(243,151)"/>
<path d="M0 0 C0.99 0 1.98 0 3 0 C1.82744291 3.33727786 0.81131596 5.77437487 -2 8 C-2.66 8 -3.32 8 -4 8 C-4.66 9.32 -5.32 10.64 -6 12 C-6.99 12 -7.98 12 -9 12 C-9.20625 12.7425 -9.4125 13.485 -9.625 14.25 C-11.40116279 17.80232558 -13.67505011 18.92190632 -17 21 C-17.66 21.99 -18.32 22.98 -19 24 C-20.32 23.67 -21.64 23.34 -23 23 C-22.01 21.515 -22.01 21.515 -21 20 C-20.34 20 -19.68 20 -19 20 C-19 19.34 -19 18.68 -19 18 C-17.33333333 17 -15.66666667 16 -14 15 C-13.154375 14.154375 -12.30875 13.30875 -11.4375 12.4375 C-9 10 -9 10 -6.8125 8.9375 C-4.42598502 7.7030957 -4.06950369 6.42420837 -3 4 C-1.5625 1.75 -1.5625 1.75 0 0 Z " fill="#EB873B" transform="translate(175,114)"/>
<path d="M0 0 C2.5625 1.875 2.5625 1.875 5 5 C5.1465164 8.42743722 4.65867457 11.64141186 4 15 C0.61877547 13.45171854 -0.79338545 11.97413266 -3 9 C-3.99 8.67 -4.98 8.34 -6 8 C-7.1875 5.9375 -7.1875 5.9375 -8 4 C-7.01 4 -6.02 4 -5 4 C-5 3.34 -5 2.68 -5 2 C-3.35 1.34 -1.7 0.68 0 0 Z " fill="#D9E4E6" transform="translate(112,26)"/>
<path d="M0 0 C4.62 0 9.24 0 14 0 C14 0.33 14 0.66 14 1 C9.71 1 5.42 1 1 1 C1 1.99 1 2.98 1 4 C1.721875 4.226875 2.44375 4.45375 3.1875 4.6875 C9.38495383 7.57964512 13.59936717 13.88917859 18 19 C17.01 19 16.02 19 15 19 C13.9926892 17.67218122 12.99387334 16.33790641 12 15 C10.34738161 13.97695052 8.68208635 12.97383946 7 12 C6.67 11.34 6.34 10.68 6 10 C4.68 10 3.36 10 2 10 C0.26265853 6.19956554 0 4.40285423 0 0 Z " fill="#EFDC9A" transform="translate(106,16)"/>
<path d="M0 0 C0 0.99 0 1.98 0 3 C-0.66 3 -1.32 3 -2 3 C-1.87882812 3.71542969 -1.75765625 4.43085937 -1.6328125 5.16796875 C-2.16849364 9.29955199 -4.7543901 10.90241798 -7.875 13.3125 C-8.43058594 13.76689453 -8.98617187 14.22128906 -9.55859375 14.68945312 C-13.69055451 18 -13.69055451 18 -16 18 C-16 18.66 -16 19.32 -16 20 C-16.66 20 -17.32 20 -18 20 C-17.67 18.68 -17.34 17.36 -17 16 C-16.34 16 -15.68 16 -15 16 C-14.79375 15.443125 -14.5875 14.88625 -14.375 14.3125 C-13.03153247 12.05303189 -11.94842298 11.0001344 -9.9375 9.375 C-6.99175287 7.32880603 -6.99175287 7.32880603 -6 5 C-5.34 5 -4.68 5 -4 5 C-3.67 4.01 -3.34 3.02 -3 2 C-2.01 1.34 -1.02 0.68 0 0 Z " fill="#509B5E" transform="translate(226,70)"/>
<path d="M0 0 C0.66 0.33 1.32 0.66 2 1 C1.835 1.78375 1.67 2.5675 1.5 3.375 C0.9376293 5.88208039 0.9376293 5.88208039 1 8 C0.401875 7.773125 -0.19625 7.54625 -0.8125 7.3125 C-3.04418828 6.74335971 -3.04418828 6.74335971 -4.75 8.1875 C-6.37848864 10.18185196 -6.37848864 10.18185196 -6 14 C-9.60092869 16.72797628 -13.84403594 18.28872068 -18 20 C-18 18 -18 18 -15.6875 15.4375 C-13 13 -13 13 -10 12 C-9.67 11.01 -9.34 10.02 -9 9 C-7.51447725 7.74053506 -6.02579359 6.48380261 -4.5 5.2734375 C-2.67093274 3.72063561 -1.32763749 1.99145624 0 0 Z " fill="#E9E4DE" transform="translate(260,22)"/>
<path d="M0 0 C0 3.69901005 -1.33550508 5.74036412 -3 9 C-3 9.66 -3 10.32 -3 11 C-3.93972656 11.25523437 -3.93972656 11.25523437 -4.8984375 11.515625 C-6.12433594 11.87914062 -6.12433594 11.87914062 -7.375 12.25 C-8.18710937 12.48203125 -8.99921875 12.7140625 -9.8359375 12.953125 C-12.45785454 14.2214892 -12.99382318 15.32423308 -14 18 C-14.99 18 -15.98 18 -17 18 C-14.78688373 14.99016187 -12.49441317 12.49178869 -9.625 10.125 C-5.97081859 7.09431823 -2.9769683 3.68577028 0 0 Z " fill="#F1CBCF" transform="translate(301,163)"/>
<path d="M0 0 C1.65 0.33 3.3 0.66 5 1 C5 1.66 5 2.32 5 3 C5.66 3 6.32 3 7 3 C7 3.66 7 4.32 7 5 C7.598125 5.20625 8.19625 5.4125 8.8125 5.625 C11.8265965 7.51957494 12.56216305 9.79754498 14 13 C14.99 14.485 14.99 14.485 16 16 C13.37812506 14.95125002 12.20628639 14.35068687 10.75 11.875 C10.5025 11.25625 10.255 10.6375 10 10 C9.34 10 8.68 10 8 10 C6.68251535 8.2433538 5.5641447 6.40106106 4.4140625 4.53125 C3.71410156 3.77328125 3.71410156 3.77328125 3 3 C1.68 3 0.36 3 -1 3 C-0.67 2.01 -0.34 1.02 0 0 Z " fill="#EBC2A2" transform="translate(184,104)"/>
<path d="M0 0 C0.33 0.66 0.66 1.32 1 2 C0.34 2 -0.32 2 -1 2 C-1.061875 2.721875 -1.12375 3.44375 -1.1875 4.1875 C-2.86205539 9.98403789 -8.13457471 12.94496551 -13 16 C-13.66 15.67 -14.32 15.34 -15 15 C-10 10 -5 5 0 0 Z " fill="#EE873C" transform="translate(149,141)"/>
<path d="M0 0 C0.99 0 1.98 0 3 0 C3 0.66 3 1.32 3 2 C4.32 2 5.64 2 7 2 C7.33 2.99 7.66 3.98 8 5 C9.49985609 6.66710346 9.49985609 6.66710346 11 8 C9.125 8.625 9.125 8.625 7 9 C6.34 8.34 5.68 7.68 5 7 C4.01 7 3.02 7 2 7 C2 6.34 2 5.68 2 5 C1.01 5 0.02 5 -1 5 C-0.67 3.35 -0.34 1.7 0 0 Z " fill="#E5E4E5" transform="translate(208,119)"/>
<path d="M0 0 C2.0625 0.4375 2.0625 0.4375 4 1 C-0.37134314 7.01059682 -6.05050907 11.61756248 -12 16 C-11.67 14.68 -11.34 13.36 -11 12 C-10.34 12 -9.68 12 -9 12 C-9 11.01 -9 10.02 -9 9 C-8.01 9 -7.02 9 -6 9 C-5.67 8.01 -5.34 7.02 -5 6 C-4.34 6 -3.68 6 -3 6 C-2.690625 5.195625 -2.38125 4.39125 -2.0625 3.5625 C-1 1 -1 1 0 0 Z " fill="#E03F51" transform="translate(348,112)"/>
<path d="M0 0 C4.62 0 9.24 0 14 0 C14 0.33 14 0.66 14 1 C11.03 1 8.06 1 5 1 C5.33 2.65 5.66 4.3 6 6 C7.32 6.33 8.64 6.66 10 7 C10 7.99 10 8.98 10 10 C10.66 10 11.32 10 12 10 C11.67 10.66 11.34 11.32 11 12 C9.72175189 10.94643208 8.45272507 9.88167217 7.1875 8.8125 C6.47980469 8.22082031 5.77210938 7.62914063 5.04296875 7.01953125 C3 5 3 5 0 0 Z " fill="#DC4354" transform="translate(202,106)"/>
<path d="M0 0 C2.83578683 1.07564328 3.86797063 1.77612411 5.4375 4.4375 C7.25924463 7.42516119 9.03218062 8.24974755 12 10 C13.1875 12.125 13.1875 12.125 14 14 C14.66 14.33 15.32 14.66 16 15 C15.67 15.66 15.34 16.32 15 17 C14.01 17 13.02 17 12 17 C11.67 15.35 11.34 13.7 11 12 C10.34 12 9.68 12 9 12 C9 11.34 9 10.68 9 10 C7.02 9.34 5.04 8.68 3 8 C3 6.68 3 5.36 3 4 C2.34 4 1.68 4 1 4 C0.67 2.68 0.34 1.36 0 0 Z " fill="#EFB9BA" transform="translate(212,117)"/>
<path d="M0 0 C0.66 0.33 1.32 0.66 2 1 C1.28714844 1.61746094 0.57429688 2.23492187 -0.16015625 2.87109375 C-6.14842384 8.1662375 -11.35651656 13.43890053 -16 20 C-16.66 19.67 -17.32 19.34 -18 19 C-17.59007812 18.54109375 -17.18015625 18.0821875 -16.7578125 17.609375 C-16.21898437 16.99578125 -15.68015625 16.3821875 -15.125 15.75 C-14.59132812 15.14671875 -14.05765625 14.5434375 -13.5078125 13.921875 C-12.01703264 12.02170999 -11.0341614 10.17310568 -10 8 C-7.72671974 5.29371398 -5.02362269 3.7831621 -2 2 C-1.34 1.34 -0.68 0.68 0 0 Z " fill="#F1CC45" transform="translate(212,68)"/>
<path d="M0 0 C2.46800047 1.15173355 4.04783565 2.04783565 6 4 C8.60280568 3.67958603 8.60280568 3.67958603 11 3 C10.8453125 4.3303125 10.8453125 4.3303125 10.6875 5.6875 C11.09498572 10.00684858 12.7722703 11.25642975 16 14 C15.67 14.66 15.34 15.32 15 16 C12.49599357 13.5248518 9.99748094 11.04423106 7.5 8.5625 C6.78457031 7.85544922 6.06914062 7.14839844 5.33203125 6.41992188 C4.65527344 5.74638672 3.97851562 5.07285156 3.28125 4.37890625 C2.65283203 3.7557251 2.02441406 3.13254395 1.37695312 2.49047852 C0 1 0 1 0 0 Z " fill="#F2C936" transform="translate(154,65)"/>
<path d="M0 0 C0.99 0 1.98 0 3 0 C1.61867539 3.1268791 0.02096237 5.19920392 -2.4375 7.5625 C-3.03433594 8.14128906 -3.63117188 8.72007812 -4.24609375 9.31640625 C-5.11427734 10.14978516 -5.11427734 10.14978516 -6 11 C-7.00227014 11.9977247 -8.00305341 12.99695588 -9 14 C-8.67 12.02 -8.34 10.04 -8 8 C-7.01 8 -6.02 8 -5 8 C-5 6.68 -5 5.36 -5 4 C-3.0625 2.3125 -3.0625 2.3125 -1 1 C-0.67 0.67 -0.34 0.34 0 0 Z " fill="#F0D8C5" transform="translate(129,156)"/>
<path d="M0 0 C3.98175544 2.10148204 6.35039045 4.36905358 9 8 C8.01 8.495 8.01 8.495 7 9 C7 8.34 7 7.68 7 7 C5.02 7.66 3.04 8.32 1 9 C-0.4783226 6.04335481 -0.06032783 3.25770263 0 0 Z " fill="#299AD1" transform="translate(96,23)"/>
<path d="M0 0 C0.33 0.66 0.66 1.32 1 2 C0.34 2 -0.32 2 -1 2 C-1.33 2.99 -1.66 3.98 -2 5 C-2.66 5 -3.32 5 -4 5 C-4.33 6.98 -4.66 8.96 -5 11 C-6.32 10.34 -7.64 9.68 -9 9 C-9 8.01 -9 7.02 -9 6 C-6.06973918 3.2650899 -3.82272915 1.27424305 0 0 Z " fill="#545890" transform="translate(16,93)"/>
<path d="M0 0 C2.97 0.495 2.97 0.495 6 1 C4.625 3 4.625 3 3 5 C2.34 5 1.68 5 1 5 C0.731875 5.61875 0.46375 6.2375 0.1875 6.875 C-1 9 -1 9 -4 11 C-4.33 10.01 -4.66 9.02 -5 8 C-3.68 7.01 -2.36 6.02 -1 5 C-1.33 4.01 -1.66 3.02 -2 2 C-1.34 2 -0.68 2 0 2 C0 1.34 0 0.68 0 0 Z " fill="#D3E2D4" transform="translate(261,28)"/>
<path d="M0 0 C1.32 0 2.64 0 4 0 C4.2475 0.61875 4.495 1.2375 4.75 1.875 C6.20628639 4.35068687 7.37812506 4.95125002 10 6 C10 6.99 10 7.98 10 9 C10.99 9 11.98 9 13 9 C13.33 10.32 13.66 11.64 14 13 C14.66 13 15.32 13 16 13 C15.67 13.66 15.34 14.32 15 15 C10.46295945 11.31283736 6.65082139 7.56352673 3 3 C2.01709032 1.98319689 1.02665213 0.97261781 0 0 Z " fill="#ADD8EC" transform="translate(148,74)"/>
<path d="M0 0 C3.97636704 2.09863816 6.39555617 4.33448647 9 8 C9 8.33 9 8.66 9 9 C7.35 9 5.7 9 4 9 C3.67 8.01 3.34 7.02 3 6 C2.34 5.67 1.68 5.34 1 5 C0.375 2.4375 0.375 2.4375 0 0 Z " fill="#269CD0" transform="translate(160,87)"/>
<path d="M0 0 C0.33 0.66 0.66 1.32 1 2 C0.34 2 -0.32 2 -1 2 C-1.268125 2.639375 -1.53625 3.27875 -1.8125 3.9375 C-3 6 -3 6 -6 7 C-7.09166275 8.93330603 -7.09166275 8.93330603 -8 11 C-8.66 11.66 -9.32 12.32 -10 13 C-10.99 12.67 -11.98 12.34 -13 12 C-9.04174791 7.17514834 -5.40839975 3.16589254 0 0 Z " fill="#6064A0" transform="translate(55,53)"/>
<path d="M0 0 C0.66 0.33 1.32 0.66 2 1 C0.71937515 2.7074998 -0.61767557 4.37373596 -2 6 C-2.66 6 -3.32 6 -4 6 C-4.226875 6.804375 -4.45375 7.60875 -4.6875 8.4375 C-5.3371875 9.7059375 -5.3371875 9.7059375 -6 11 C-8.625 11.8125 -8.625 11.8125 -11 12 C-10.34 10.68 -9.68 9.36 -9 8 C-8.34 8 -7.68 8 -7 8 C-7 7.34 -7 6.68 -7 6 C-5.33720673 4.9935725 -3.67016516 3.99414593 -2 3 C-1.34 2.01 -0.68 1.02 0 0 Z " fill="#EB9F66" transform="translate(163,126)"/>
<path d="M0 0 C2.31 0.66 4.62 1.32 7 2 C7.33 3.65 7.66 5.3 8 7 C9.65 7.33 11.3 7.66 13 8 C13.33 9.65 13.66 11.3 14 13 C12.7010161 12.09373216 11.41106833 11.17450463 10.125 10.25 C9.40570313 9.73953125 8.68640625 9.2290625 7.9453125 8.703125 C5.89695883 6.90978725 5.13536411 5.43292308 4 3 C1.9664052 1.73195434 1.9664052 1.73195434 0 1 C0 0.67 0 0.34 0 0 Z " fill="#E15464" transform="translate(224,129)"/>
<path d="M0 0 C0.33 0.66 0.66 1.32 1 2 C0.67 2.66 0.34 3.32 0 4 C-0.66 4 -1.32 4 -2 4 C-2.4021875 5.175625 -2.4021875 5.175625 -2.8125 6.375 C-4 9 -4 9 -7 11 C-7.99 10.67 -8.98 10.34 -10 10 C-9.67 9.34 -9.34 8.68 -9 8 C-8.34 8 -7.68 8 -7 8 C-6.67 7.01 -6.34 6.02 -6 5 C-5.34 5 -4.68 5 -4 5 C-3.67 4.01 -3.34 3.02 -3 2 C-2.01 1.34 -1.02 0.68 0 0 Z " fill="#66A471" transform="translate(250,46)"/>
<path d="M0 0 C1.875 0.25 1.875 0.25 4 1 C4.66666667 2.33333333 5.33333333 3.66666667 6 5 C7.2375 5.680625 7.2375 5.680625 8.5 6.375 C11.73160345 8.47554224 12.10536636 10.34013513 13 14 C10.95880212 12.38405168 8.95927063 10.7143618 7 9 C7 8.34 7 7.68 7 7 C6.401875 6.773125 5.80375 6.54625 5.1875 6.3125 C2.43648112 4.66188867 1.47515363 2.8027919 0 0 Z " fill="#E36270" transform="translate(245,149)"/>
<path d="M0 0 C0.33 0.99 0.66 1.98 1 3 C0.16855469 3.68835938 0.16855469 3.68835938 -0.6796875 4.390625 C-1.76636719 5.31101562 -1.76636719 5.31101562 -2.875 6.25 C-3.59429687 6.85328125 -4.31359375 7.4565625 -5.0546875 8.078125 C-7.08614753 9.87883149 -7.08614753 9.87883149 -8.09375 12.1875 C-8.3928125 12.785625 -8.691875 13.38375 -9 14 C-11.625 14.75 -11.625 14.75 -14 15 C-10.49925018 10.82556637 -7.02049157 6.6854506 -3 3 C-2.34 3 -1.68 3 -1 3 C-0.67 2.01 -0.34 1.02 0 0 Z " fill="#EDA7AE" transform="translate(349,115)"/>
<path d="M0 0 C4.32239956 3.34003602 7.17477391 6.32751069 10 11 C8.35 11 6.7 11 5 11 C5 10.34 5 9.68 5 9 C4.34 9 3.68 9 3 9 C2.87625 8.360625 2.7525 7.72125 2.625 7.0625 C2.315625 6.0415625 2.315625 6.0415625 2 5 C1.34 4.67 0.68 4.34 0 4 C0 2.68 0 1.36 0 0 Z " fill="#289BCD" transform="translate(150,76)"/>
<path d="M0 0 C0.99 0.33 1.98 0.66 3 1 C1.47005208 2.23697917 -0.05989583 3.47395833 -1.58984375 4.7109375 C-3.13266437 5.9666391 -3.13266437 5.9666391 -4 8 C-4.66 8 -5.32 8 -6 8 C-6.66 9.32 -7.32 10.64 -8 12 C-8.6875 10.25 -8.6875 10.25 -9 8 C-7.8125 5.75 -7.8125 5.75 -6 4 C-4.68 4 -3.36 4 -2 4 C-2 3.01 -2 2.02 -2 1 C-1.34 0.67 -0.68 0.34 0 0 Z " fill="#C8DECC" transform="translate(226,67)"/>
<path d="M0 0 C0.33 0.66 0.66 1.32 1 2 C0.38125 2.556875 -0.2375 3.11375 -0.875 3.6875 C-3.15668358 5.84913819 -3.15668358 5.84913819 -3.875 8.6875 C-4.24625 9.450625 -4.6175 10.21375 -5 11 C-8.125 11.8125 -8.125 11.8125 -11 12 C-7.49102731 7.81576108 -3.91939465 3.80411834 0 0 Z " fill="#B3DAEF" transform="translate(121,154)"/>
<path d="M0 0 C0.66 0.33 1.32 0.66 2 1 C-4.435 6.94 -4.435 6.94 -11 13 C-11.33 12.01 -11.66 11.02 -12 10 C-9.48054239 6.02700916 -7.34654279 4.56029741 -3 3 C-1.22722741 1.47992158 -1.22722741 1.47992158 0 0 Z " fill="#B1B4D3" transform="translate(22,84)"/>
<path d="M0 0 C0.66 0.33 1.32 0.66 2 1 C1.68151178 3.94601605 1.44141246 5.55858754 -0.6875 7.6875 C-3.37303256 9.21172118 -6.04404863 10.12665073 -9 11 C-8.67 10.01 -8.34 9.02 -8 8 C-7.34 8 -6.68 8 -6 8 C-5.67 7.01 -5.34 6.02 -5 5 C-3.37347684 3.29413425 -1.70993434 1.6222454 0 0 Z " fill="#63A26B" transform="translate(238,57)"/>
<path d="M0 0 C0.66 0 1.32 0 2 0 C2 0.66 2 1.32 2 2 C3.65 2.33 5.3 2.66 7 3 C7.33 3.99 7.66 4.98 8 6 C8.99 6.33 9.98 6.66 11 7 C11.33 8.65 11.66 10.3 12 12 C7.78451534 10.43870938 5.77312983 7.41308287 3 4 C2.01 3.34 1.02 2.68 0 2 C0 1.34 0 0.68 0 0 Z " fill="#F1CA3C" transform="translate(126,37)"/>
<path d="M0 0 C0.66 1.32 1.32 2.64 2 4 C-4.14285714 9.57142857 -4.14285714 9.57142857 -9 10 C-7.61811547 6.78956118 -6.07578097 4.95063635 -3.375 2.75 C-2.74335938 2.22921875 -2.11171875 1.7084375 -1.4609375 1.171875 C-0.73777344 0.59179688 -0.73777344 0.59179688 0 0 Z " fill="#589E63" transform="translate(269,27)"/>
<path d="M0 0 C4.56048012 3.61251516 8.01665146 6.98797445 11 12 C9.68 11.67 8.36 11.34 7 11 C7 10.01 7 9.02 7 8 C5.68 7.67 4.36 7.34 3 7 C3 6.01 3 5.02 3 4 C1.68 4.33 0.36 4.66 -1 5 C-0.67 3.35 -0.34 1.7 0 0 Z " fill="#EA8D45" transform="translate(248,168)"/>
<path d="M0 0 C2.125 0.9375 2.125 0.9375 4 2 C2.8572081 3.16964602 1.71068285 4.33564556 0.5625 5.5 C-0.07558594 6.1496875 -0.71367187 6.799375 -1.37109375 7.46875 C-3 9 -3 9 -4 9 C-4 7.02 -4 5.04 -4 3 C-3.34 3 -2.68 3 -2 3 C-2 2.34 -2 1.68 -2 1 C-1.34 0.67 -0.68 0.34 0 0 Z " fill="#1E98D1" transform="translate(135,135)"/>
<path d="M0 0 C0 0.66 0 1.32 0 2 C-0.66 2 -1.32 2 -2 2 C-2.24492187 2.58265625 -2.48984375 3.1653125 -2.7421875 3.765625 C-4.20435874 6.36302236 -5.84740414 7.83975831 -8.125 9.75 C-9.21167969 10.67039062 -9.21167969 10.67039062 -10.3203125 11.609375 C-10.87460938 12.06828125 -11.42890625 12.5271875 -12 13 C-12.66 12.67 -13.32 12.34 -14 12 C-12.75479583 10.55834372 -11.50362077 9.12184348 -10.25 7.6875 C-9.55390625 6.88699219 -8.8578125 6.08648437 -8.140625 5.26171875 C-3.16062176 0 -3.16062176 0 0 0 Z " fill="#F0DEA4" transform="translate(242,42)"/>
<path d="M0 0 C0.66 0.33 1.32 0.66 2 1 C1.835 1.78375 1.67 2.5675 1.5 3.375 C0.9376293 5.88208039 0.9376293 5.88208039 1 8 C0.46375 7.731875 -0.0725 7.46375 -0.625 7.1875 C-3.57282601 6.95477689 -4.04811495 7.5799856 -6.25 9.4375 C-7.61125 10.7059375 -7.61125 10.7059375 -9 12 C-9 11.01 -9 10.02 -9 9 C-7.53505215 7.73037853 -6.06360932 6.4658477 -4.53515625 5.2734375 C-2.67540417 3.73074239 -1.33668152 2.00502227 0 0 Z " fill="#EEE2BB" transform="translate(260,22)"/>
<path d="M0 0 C0.33 0.66 0.66 1.32 1 2 C0.04882866 3.1725131 -0.91117009 4.33787015 -1.875 5.5 C-2.40867188 6.1496875 -2.94234375 6.799375 -3.4921875 7.46875 C-4.23855469 8.22671875 -4.23855469 8.22671875 -5 9 C-5.66 9 -6.32 9 -7 9 C-7 9.66 -7 10.32 -7 11 C-7.66 11 -8.32 11 -9 11 C-8.67 9.68 -8.34 8.36 -8 7 C-7.34 7 -6.68 7 -6 7 C-5.7525 6.401875 -5.505 5.80375 -5.25 5.1875 C-3.83629988 2.71352479 -2.34944617 1.56629745 0 0 Z " fill="#5C9F6A" transform="translate(217,79)"/>
<path d="M0 0 C0.66 0.33 1.32 0.66 2 1 C0.03124833 5.55921438 -1.83139716 8.25482252 -6 11 C-8.3125 11.75 -8.3125 11.75 -10 12 C-8.74993611 8.24980832 -7.06668123 7.42481772 -4 5 C-2.62631655 3.36643049 -1.28062485 1.7074998 0 0 Z " fill="#6366A0" transform="translate(34,72)"/>
<path d="M0 0 C0.66 0 1.32 0 2 0 C0.66938508 2.87666273 -0.82287977 5.21136636 -2.875 7.625 C-3.36742187 8.21539062 -3.85984375 8.80578125 -4.3671875 9.4140625 C-6.12154783 11.11805842 -7.77028708 12.02510387 -10 13 C-10.33 12.01 -10.66 11.02 -11 10 C-10.195625 9.7525 -9.39125 9.505 -8.5625 9.25 C-7.716875 8.8375 -6.87125 8.425 -6 8 C-5.25723969 6.02919843 -5.25723969 6.02919843 -5 4 C-4.34 3.34 -3.68 2.68 -3 2 C-2.01 2 -1.02 2 0 2 C0 1.34 0 0.68 0 0 Z " fill="#BFC1DB" transform="translate(46,58)"/>
<path d="M0 0 C0.99 0.33 1.98 0.66 3 1 C4.1875 3.5625 4.1875 3.5625 5 6 C3.68 7.65 2.36 9.3 1 11 C0.34 10.67 -0.32 10.34 -1 10 C-0.01 8.35 0.98 6.7 2 5 C1.01 4.67 0.02 4.34 -1 4 C-0.67 2.68 -0.34 1.36 0 0 Z " fill="#37A0D0" transform="translate(169,96)"/>
<path d="M0 0 C1.32 0.33 2.64 0.66 4 1 C1.69 3.31 -0.62 5.62 -3 8 C-3.66 6.68 -4.32 5.36 -5 4 C-4.67 3.01 -4.34 2.02 -4 1 C-2.68 1.66 -1.36 2.32 0 3 C0 2.01 0 1.02 0 0 Z " fill="#229BCF" transform="translate(104,167)"/>
<path d="M0 0 C1.32 0 2.64 0 4 0 C3.75 2.375 3.75 2.375 3 5 C0.9375 6.3125 0.9375 6.3125 -1 7 C-1.625 4.625 -1.625 4.625 -2 2 C-1.34 1.34 -0.68 0.68 0 0 Z " fill="#E7E4E5" transform="translate(255,166)"/>
<path d="M0 0 C0.33 0.99 0.66 1.98 1 3 C-1.20875121 5.19602066 -3.40994275 7.26080867 -6 9 C-8.9375 8.875 -8.9375 8.875 -11 8 C-10.67 7.34 -10.34 6.68 -10 6 C-9.2575 5.896875 -8.515 5.79375 -7.75 5.6875 C-4.0696348 4.7674087 -2.4905099 2.7751396 0 0 Z " fill="#EFDB91" transform="translate(193,88)"/>
<path d="M0 0 C3.44428265 1.44781793 5.36130962 3.27694609 7.75 6.125 C8.36359375 6.84945312 8.9771875 7.57390625 9.609375 8.3203125 C10.29773438 9.15175781 10.29773438 9.15175781 11 10 C10.01 10 9.02 10 8 10 C8 9.34 8 8.68 8 8 C7.4225 7.938125 6.845 7.87625 6.25 7.8125 C3.07551517 6.66615826 1.87151425 4.74043158 0 2 C0 1.34 0 0.68 0 0 Z " fill="#319DCC" transform="translate(120,47)"/>
<path d="M0 0 C0.33 0.99 0.66 1.98 1 3 C0.01 3.33 -0.98 3.66 -2 4 C-2.59070014 5.94603274 -2.59070014 5.94603274 -3 8 C-3.66 8.66 -4.32 9.32 -5 10 C-5.99 9.34 -6.98 8.68 -8 8 C-5.36 5.36 -2.72 2.72 0 0 Z " fill="#5A9F66" transform="translate(259,37)"/>
<path d="M0 0 C3.99996286 1.33332095 4.83782337 3.4957827 7 7 C5.02 7.33 3.04 7.66 1 8 C0.67 5.36 0.34 2.72 0 0 Z " fill="#EED6D6" transform="translate(249,155)"/>
<path d="M0 0 C1.32 0.33 2.64 0.66 4 1 C4 1.99 4 2.98 4 4 C5.32 4 6.64 4 8 4 C8 5.65 8 7.3 8 9 C5.53199953 7.84826645 3.95216435 6.95216435 2 5 C2 4.01 2 3.02 2 2 C1.34 2 0.68 2 0 2 C0 1.34 0 0.68 0 0 Z " fill="#D3E3EF" transform="translate(162,85)"/>
<path d="M0 0 C1.14926266 0.95421808 2.29430541 1.91352045 3.4375 2.875 C4.07558594 3.40867187 4.71367187 3.94234375 5.37109375 4.4921875 C7 6 7 6 8 8 C5.03 7.505 5.03 7.505 2 7 C2 6.34 2 5.68 2 5 C1.34 4.67 0.68 4.34 0 4 C0 2.68 0 1.36 0 0 Z " fill="#EEE1B8" transform="translate(156,68)"/>
<path d="M0 0 C0.33 1.32 0.66 2.64 1 4 C-1.3125 6.0625 -1.3125 6.0625 -4 8 C-4.99 7.67 -5.98 7.34 -7 7 C-4.69 4.69 -2.38 2.38 0 0 Z " fill="#BBDCEE" transform="translate(137,138)"/>
<path d="M0 0 C0.66 0.33 1.32 0.66 2 1 C-1.625 5.875 -1.625 5.875 -5 7 C-6.66710346 8.49985609 -6.66710346 8.49985609 -8 10 C-7.67 8.02 -7.34 6.04 -7 4 C-5.68 4 -4.36 4 -3 4 C-3 3.34 -3 2.68 -3 2 C-2.01 1.34 -1.02 0.68 0 0 Z " fill="#F2CDB1" transform="translate(180,108)"/>
<path d="M0 0 C1.5 1.375 1.5 1.375 3 3 C3 3.66 3 4.32 3 5 C1.02 5.66 -0.96 6.32 -3 7 C-3 3 -3 3 -1.5 1.25 C-1.005 0.8375 -0.51 0.425 0 0 Z " fill="#E4E6E6" transform="translate(257,28)"/>
<path d="M0 0 C0.66 0.33 1.32 0.66 2 1 C-0.65654657 4.73884332 -2.58110387 6.64978174 -7 8 C-7.99 6.68 -8.98 5.36 -10 4 C-8.906875 4.0825 -7.81375 4.165 -6.6875 4.25 C-2.96557142 4.41103961 -2.96557142 4.41103961 -1.0625 2 C-0.711875 1.34 -0.36125 0.68 0 0 Z " fill="#E16871" transform="translate(286,176)"/>
<path d="M0 0 C0.99 0.33 1.98 0.66 3 1 C1.50902342 4.7952131 -0.75700849 6.61042731 -4 9 C-4 7.68 -4 6.36 -4 5 C-3.01 5 -2.02 5 -1 5 C-0.67 3.35 -0.34 1.7 0 0 Z " fill="#269ACF" transform="translate(115,155)"/>
<path d="M0 0 C0.268125 0.5775 0.53625 1.155 0.8125 1.75 C2.01719859 4.0325868 3.40798115 5.9737942 5 8 C4.67 8.66 4.34 9.32 4 10 C1.03595495 7.19195732 -1.44499019 4.81684226 -3 1 C-2.01 0.67 -1.02 0.34 0 0 Z " fill="#ABD6EA" transform="translate(127,48)"/>
<path d="M0 0 C1.65 0 3.3 0 5 0 C4.04663979 1.31611677 3.08714226 2.62778961 2.125 3.9375 C1.59132813 4.66839844 1.05765625 5.39929687 0.5078125 6.15234375 C-1 8 -1 8 -3 9 C-2 6 -1 3 0 0 Z " fill="#BCBED8" transform="translate(60,42)"/>
<path d="M0 0 C0.33 0 0.66 0 1 0 C1.375 2.1875 1.375 2.1875 1 5 C-0.82869674 7.08832653 -2.69052559 8.38336791 -5 10 C-5.66 10 -6.32 10 -7 10 C-6.67 9.01 -6.34 8.02 -6 7 C-5.360625 6.71125 -4.72125 6.4225 -4.0625 6.125 C-1.28319146 4.60901352 -0.92884019 2.94132727 0 0 Z " fill="#EF8232" transform="translate(133,157)"/>
<path d="M0 0 C0.33 1.32 0.66 2.64 1 4 C-2 6 -2 6 -5 6 C-5.33 6.99 -5.66 7.98 -6 9 C-6.66 8.67 -7.32 8.34 -8 8 C-5.33333333 5.33333333 -2.66666667 2.66666667 0 0 Z " fill="#EDB4B8" transform="translate(310,154)"/>
<path d="M0 0 C7.48291572 6.15034169 7.48291572 6.15034169 10 10 C9.401875 9.690625 8.80375 9.38125 8.1875 9.0625 C5.91043228 7.89790296 5.91043228 7.89790296 3 7 C0 2.66666667 0 2.66666667 0 0 Z " fill="#E78836" transform="translate(229,150)"/>
<path d="M0 0 C0.66 0.33 1.32 0.66 2 1 C1.34 1.66 0.68 2.32 0 3 C-0.70710678 4.64991582 -1.37943989 6.31562256 -2 8 C-3.32 8 -4.64 8 -6 8 C-6 6 -6 6 -3.5625 3.4375 C-2.716875 2.633125 -1.87125 1.82875 -1 1 C-0.67 0.67 -0.34 0.34 0 0 Z " fill="#ECA169" transform="translate(118,170)"/>
<path d="M0 0 C1.32 0 2.64 0 4 0 C3.34 1.32 2.68 2.64 2 4 C1.34 4 0.68 4 0 4 C-0.66 5.32 -1.32 6.64 -2 8 C-2.33 6.68 -2.66 5.36 -3 4 C-1.68 3.67 -0.36 3.34 1 3 C0.67 2.01 0.34 1.02 0 0 Z " fill="#F2D9C9" transform="translate(112,172)"/>
<path d="M0 0 C0 3.21518097 -0.1621112 4.41024759 -2 7 C-5.125 8.25 -5.125 8.25 -8 9 C-7.04270084 7.87411986 -6.08412105 6.7493285 -5.125 5.625 C-4.59132813 4.99851563 -4.05765625 4.37203125 -3.5078125 3.7265625 C-2.38567993 2.44163349 -1.20628025 1.20628025 0 0 Z " fill="#B1D9EC" transform="translate(109,166)"/>
<path d="M0 0 C1 2 1 2 0.4375 4 C-1.57302108 6.79724672 -3.74418077 7.15065585 -7 8 C-5.50902342 4.2047869 -3.24299151 2.38957269 0 0 Z " fill="#ADD7EE" transform="translate(129,146)"/>
<path d="M0 0 C0.99 0.33 1.98 0.66 3 1 C1.71034824 2.37562854 0.37310707 3.70766393 -1 5 C-1.66 5 -2.32 5 -3 5 C-3.33 5.99 -3.66 6.98 -4 8 C-4.33 6.68 -4.66 5.36 -5 4 C-4.01 4 -3.02 4 -2 4 C-2 3.01 -2 2.02 -2 1 C-1.34 0.67 -0.68 0.34 0 0 Z " fill="#F6C423" transform="translate(193,85)"/>
<path d="M0 0 C1.8125 0.1875 1.8125 0.1875 4 1 C5.75 3.5625 5.75 3.5625 7 6 C5.35 5.67 3.7 5.34 2 5 C2 4.01 2 3.02 2 2 C1.34 2 0.68 2 0 2 C0 1.34 0 0.68 0 0 Z " fill="#309BCE" transform="translate(106,34)"/>
<path d="M0 0 C0.99 0.33 1.98 0.66 3 1 C3 1.66 3 2.32 3 3 C4.32 3.33 5.64 3.66 7 4 C6.67 5.32 6.34 6.64 6 8 C4.9970458 6.85675161 3.99770973 5.71032809 3 4.5625 C2.443125 3.92441406 1.88625 3.28632813 1.3125 2.62890625 C0 1 0 1 0 0 Z " fill="#DF4355" transform="translate(257,160)"/>
<path d="M0 0 C5.75 0.75 5.75 0.75 8 3 C7.34 3 6.68 3 6 3 C6.33 4.32 6.66 5.64 7 7 C5 5.625 5 5.625 3 4 C3 3.34 3 2.68 3 2 C2.01 1.67 1.02 1.34 0 1 C0 0.67 0 0.34 0 0 Z " fill="#535896" transform="translate(66,160)"/>
<path d="M0 0 C0 3 0 3 -1.875 5.1875 C-4 7 -4 7 -6 7 C-5.8125 5.1875 -5.8125 5.1875 -5 3 C-2.4375 1.25 -2.4375 1.25 0 0 Z " fill="#F0CDD1" transform="translate(317,149)"/>
<path d="M0 0 C1.32 0.33 2.64 0.66 4 1 C2.37660195 2.70884005 0.70680947 4.37446717 -1 6 C-1.66 6 -2.32 6 -3 6 C-2.67 4.68 -2.34 3.36 -2 2 C-1.34 2 -0.68 2 0 2 C0 1.34 0 0.68 0 0 Z " fill="#2399CB" transform="translate(127,144)"/>
<path d="M0 0 C0 3 0 3 -1.4375 4.5 C-1.953125 4.995 -2.46875 5.49 -3 6 C-3.33 6.99 -3.66 7.98 -4 9 C-4.66 9 -5.32 9 -6 9 C-5.69381595 5.32579134 -5.24228216 4.21864487 -2.4375 1.6875 C-1.633125 1.130625 -0.82875 0.57375 0 0 Z " fill="#4B4F95" transform="translate(41,67)"/>
<path d="M0 0 C4.20626034 1.50223584 5.73900021 4.28550034 8 8 C6.35 7.67 4.7 7.34 3 7 C3 6.01 3 5.02 3 4 C2.34 4 1.68 4 1 4 C0.67 2.68 0.34 1.36 0 0 Z " fill="#EFDFA8" transform="translate(148,60)"/>
<path d="M0 0 C2.64 0 5.28 0 8 0 C8 0.66 8 1.32 8 2 C7.34 2 6.68 2 6 2 C5.67 2.99 5.34 3.98 5 5 C2 4 2 4 0.8125 1.9375 C0.544375 1.298125 0.27625 0.65875 0 0 Z " fill="#AFD4EB" transform="translate(104,30)"/>
<path d="M0 0 C0.928125 0.0825 1.85625 0.165 2.8125 0.25 C-0.9375 3.25 -0.9375 3.25 -3.1875 3.25 C-3.1875 3.91 -3.1875 4.57 -3.1875 5.25 C-4.1775 4.92 -5.1675 4.59 -6.1875 4.25 C-4.36434338 1.00883268 -3.82500054 0.30000004 0 0 Z " fill="#EA8B41" transform="translate(114.1875,177.75)"/>
<path d="M0 0 C1.98 0.66 3.96 1.32 6 2 C6 2.99 6 3.98 6 5 C6.66 5 7.32 5 8 5 C7.67 5.66 7.34 6.32 7 7 C5.83040013 6.02433888 4.66438823 5.044375 3.5 4.0625 C2.8503125 3.51722656 2.200625 2.97195312 1.53125 2.41015625 C1.0259375 1.94480469 0.520625 1.47945313 0 1 C0 0.67 0 0.34 0 0 Z " fill="#E05D69" transform="translate(206,111)"/>
<path d="M0 0 C0.66 0 1.32 0 2 0 C2 1.32 2 2.64 2 4 C1.34 4 0.68 4 0 4 C0 4.66 0 5.32 0 6 C-1.32 5.34 -2.64 4.68 -4 4 C-3.01 3.67 -2.02 3.34 -1 3 C-0.67 2.01 -0.34 1.02 0 0 Z " fill="#EBDDD3" transform="translate(200,112)"/>
<path d="M0 0 C1.65 0 3.3 0 5 0 C5.33 1.98 5.66 3.96 6 6 C5.34 6 4.68 6 4 6 C2.61061923 4.03852126 1.2739589 2.03833424 0 0 Z " fill="#B0D3B5" transform="translate(336,73)"/>
<path d="M0 0 C3.82946843 1.45255699 5.12050295 3.42895561 7 7 C6.01 6.67 5.02 6.34 4 6 C4 5.34 4 4.68 4 4 C2.68 4 1.36 4 0 4 C0 2.68 0 1.36 0 0 Z " fill="#339FD2" transform="translate(113,40)"/>
<path d="M0 0 C0.99 0.33 1.98 0.66 3 1 C0.69 3.31 -1.62 5.62 -4 8 C-4.66 7.67 -5.32 7.34 -6 7 C-4.02 4.69 -2.04 2.38 0 0 Z " fill="#EA8E49" transform="translate(123,166)"/>
<path d="M0 0 C2.31 1.98 4.62 3.96 7 6 C6.01 6.495 6.01 6.495 5 7 C4.01 6.67 3.02 6.34 2 6 C2 5.34 2 4.68 2 4 C1.34 3.67 0.68 3.34 0 3 C0 2.01 0 1.02 0 0 Z " fill="#CBCCDF" transform="translate(58,153)"/>
<path d="M0 0 C0 0.99 0 1.98 0 3 C-3 5.1875 -3 5.1875 -6 7 C-6 5.68 -6 4.36 -6 3 C-5.01 3 -4.02 3 -3 3 C-3 2.34 -3 1.68 -3 1 C-2.01 0.67 -1.02 0.34 0 0 Z " fill="#E0505E" transform="translate(319,144)"/>
<path d="M0 0 C0.33 0.66 0.66 1.32 1 2 C0.34 2 -0.32 2 -1 2 C-1.33 3.65 -1.66 5.3 -2 7 C-3.32 6.67 -4.64 6.34 -6 6 C-2.25 1.125 -2.25 1.125 0 0 Z " fill="#E8904D" transform="translate(149,141)"/>
<path d="M0 0 C2.31 1.98 4.62 3.96 7 6 C6.01 6.33 5.02 6.66 4 7 C1 5 1 5 0.3125 2.375 C0.209375 1.59125 0.10625 0.8075 0 0 Z " fill="#64A574" transform="translate(327,64)"/>
<path d="M0 0 C1.98 1.65 3.96 3.3 6 5 C3 6 3 6 0 5 C0 3.35 0 1.7 0 0 Z " fill="#F0E0B3" transform="translate(140,52)"/>
<path d="M0 0 C2.475 0.495 2.475 0.495 5 1 C5.33 2.32 5.66 3.64 6 5 C6.66 5 7.32 5 8 5 C7.67 5.66 7.34 6.32 7 7 C5.83040013 6.02433888 4.66438823 5.044375 3.5 4.0625 C2.8503125 3.51722656 2.200625 2.97195312 1.53125 2.41015625 C1.0259375 1.94480469 0.520625 1.47945312 0 1 C0 0.67 0 0.34 0 0 Z " fill="#B4D4BA" transform="translate(296,33)"/>
<path d="M0 0 C1 2 1 2 0.375 4.0625 C-1 6 -1 6 -3.625 6.75 C-4.800625 6.87375 -4.800625 6.87375 -6 7 C-4.02 4.69 -2.04 2.38 0 0 Z " fill="#60A270" transform="translate(276,20)"/>
<path d="M0 0 C0.99 0 1.98 0 3 0 C2.34 1.65 1.68 3.3 1 5 C0.01 5 -0.98 5 -2 5 C-1.34 3.35 -0.68 1.7 0 0 Z " fill="#EA904E" transform="translate(175,114)"/>
<path d="M0 0 C1.32 0.33 2.64 0.66 4 1 C2.71937515 2.7074998 1.38232443 4.37373596 0 6 C-0.66 6 -1.32 6 -2 6 C-2 5.01 -2 4.02 -2 3 C-1.34 3 -0.68 3 0 3 C0 2.01 0 1.02 0 0 Z " fill="#D94658" transform="translate(354,106)"/>
<path d="M0 0 C-1.15173355 2.46800047 -2.04783565 4.04783565 -4 6 C-4.99 5.67 -5.98 5.34 -7 5 C-2.25 0 -2.25 0 0 0 Z " fill="#585C97" transform="translate(49,60)"/>
<path d="M0 0 C2.31 1.65 4.62 3.3 7 5 C5.68 5.33 4.36 5.66 3 6 C3 5.34 3 4.68 3 4 C2.01 3.67 1.02 3.34 0 3 C0 2.01 0 1.02 0 0 Z " fill="#309DCA" transform="translate(131,58)"/>
<path d="M0 0 C0.66 0 1.32 0 2 0 C1.67 0.99 1.34 1.98 1 3 C0.34 3 -0.32 3 -1 3 C-1.268125 3.639375 -1.53625 4.27875 -1.8125 4.9375 C-3 7 -3 7 -6 8 C-6 6 -6 6 -3.5625 3.4375 C-2.716875 2.633125 -1.87125 1.82875 -1 1 C-0.67 0.67 -0.34 0.34 0 0 Z " fill="#F0E1AF" transform="translate(248,34)"/>
</svg>
